<svg xmlns="http://www.w3.org/2000/svg" xmlns:xlink="http://www.w3.org/1999/xlink" width="200" zoomAndPan="magnify" viewBox="0 0 150 149.999998" height="200" preserveAspectRatio="xMidYMid meet" version="1.0"><defs><clipPath id="bd4434216e"><path d="M 27.179688 49 L 122.816406 49 L 122.816406 117.070312 L 27.179688 117.070312 Z M 27.179688 49 " clip-rule="nonzero"/></clipPath><clipPath id="293fecb201"><path d="M 27.179688 32.925781 L 109.816406 32.925781 L 109.816406 117.070312 L 27.179688 117.070312 Z M 27.179688 32.925781 " clip-rule="nonzero"/></clipPath><clipPath id="9a4f458a68"><path d="M 40.296875 32.925781 L 122.816406 32.925781 L 122.816406 117.070312 L 40.296875 117.070312 Z M 40.296875 32.925781 " clip-rule="nonzero"/></clipPath><clipPath id="f04f071717"><path d="M 36 32.617188 L 114 32.617188 L 114 75 L 36 75 Z M 36 32.617188 " clip-rule="nonzero"/></clipPath><clipPath id="aaba6ca994"><path d="M 27.179688 71 L 122.816406 71 L 122.816406 117.070312 L 27.179688 117.070312 Z M 27.179688 71 " clip-rule="nonzero"/></clipPath></defs><path fill="#6ce680" d="M 118.339844 115.820312 L 31.65625 115.820312 C 29.875 115.820312 28.433594 114.375 28.433594 112.597656 L 28.433594 88.277344 C 28.433594 86.5 29.875 85.054688 31.65625 85.054688 L 118.339844 85.054688 C 120.121094 85.054688 121.566406 86.5 121.566406 88.277344 L 121.566406 112.597656 C 121.566406 114.375 120.121094 115.820312 118.339844 115.820312 " fill-opacity="1" fill-rule="nonzero"/><g clip-path="url(#bd4434216e)"><path stroke-linecap="butt" transform="matrix(0.131171, 0, 0, -0.131171, 27.177975, 117.071654)" fill="none" stroke-linejoin="miter" d="M 694.985465 9.539783 L 34.140769 9.539783 C 20.561157 9.539783 9.572391 20.558328 9.572391 34.10816 L 9.572391 219.517519 C 9.572391 233.067352 20.561157 244.085897 34.140769 244.085897 L 694.985465 244.085897 C 708.565078 244.085897 719.583623 233.067352 719.583623 219.517519 L 719.583623 34.10816 C 719.583623 20.558328 708.565078 9.539783 694.985465 9.539783 Z M 694.985465 9.539783 " stroke="#100f0d" stroke-width="19.129" stroke-opacity="1" stroke-miterlimit="10"/></g><path fill="#6ce680" d="M 73.902344 38.921875 L 44.164062 85.054688 " fill-opacity="1" fill-rule="nonzero"/><g clip-path="url(#293fecb201)"><path stroke-linecap="butt" transform="matrix(0.131171, 0, 0, -0.131171, 27.177975, 117.071654)" fill="none" stroke-linejoin="miter" d="M 356.209869 595.785949 L 129.495855 244.085897 " stroke="#100f0d" stroke-width="19.129" stroke-opacity="1" stroke-miterlimit="10"/></g><path fill="#6ce680" d="M 76.09375 38.921875 L 105.835938 85.054688 " fill-opacity="1" fill-rule="nonzero"/><g clip-path="url(#9a4f458a68)"><path stroke-linecap="butt" transform="matrix(0.131171, 0, 0, -0.131171, 27.177975, 117.071654)" fill="none" stroke-linejoin="miter" d="M 372.916366 595.785949 L 599.660159 244.085897 " stroke="#100f0d" stroke-width="19.129" stroke-opacity="1" stroke-miterlimit="10"/></g><path fill="#6ce680" d="M 77.660156 36.554688 C 77.660156 37.859375 76.46875 38.921875 75 38.921875 C 73.527344 38.921875 72.335938 37.859375 72.335938 36.554688 C 72.335938 35.246094 73.527344 34.1875 75 34.1875 C 76.46875 34.1875 77.660156 35.246094 77.660156 36.554688 " fill-opacity="1" fill-rule="nonzero"/><g clip-path="url(#f04f071717)"><path stroke-linecap="butt" transform="matrix(0.131171, 0, 0, -0.131171, 27.177975, 117.071654)" fill="none" stroke-linejoin="miter" d="M 384.858044 613.832472 C 384.858044 603.886003 375.77519 595.785884 364.577967 595.785884 C 353.350964 595.785884 344.26811 603.886003 344.26811 613.832472 C 344.26811 623.808721 353.350964 631.87906 364.577967 631.87906 C 375.77519 631.87906 384.858044 623.808721 384.858044 613.832472 Z M 384.858044 613.832472 " stroke="#100f0d" stroke-width="19.129" stroke-opacity="1" stroke-miterlimit="10"/></g><path fill="#100f0d" d="M 35.777344 108.125 C 36.433594 108.824219 37.722656 109.375 38.910156 109.375 C 41.820312 109.375 43.234375 106.792969 43.234375 103.84375 C 43.234375 101.035156 42.171875 99.476562 40.101562 98.226562 C 38.378906 97.203125 37.640625 96.320312 37.640625 94.539062 C 37.640625 93.226562 38.277344 91.667969 39.957031 91.667969 C 41.085938 91.667969 41.902344 92.242188 42.3125 92.570312 L 42.746094 90.5625 C 42.191406 90.070312 41.289062 89.617188 40.019531 89.617188 C 37.621094 89.617188 36.023438 91.832031 36.023438 94.824219 C 36.023438 97.507812 37.273438 99.128906 39.28125 100.234375 C 40.960938 101.238281 41.617188 102.265625 41.617188 104.046875 C 41.617188 105.972656 40.652344 107.304688 39.035156 107.304688 C 37.929688 107.304688 36.882812 106.734375 36.164062 106.054688 Z M 35.777344 108.125 " fill-opacity="1" fill-rule="nonzero"/><path fill="#100f0d" d="M 50.425781 89.617188 C 47.125 89.617188 44.6875 93.59375 44.6875 99.683594 C 44.6875 105.460938 46.980469 109.375 50.242188 109.375 C 53.398438 109.375 55.980469 105.890625 55.980469 99.3125 C 55.980469 93.636719 53.808594 89.617188 50.425781 89.617188 Z M 50.34375 91.648438 C 53.007812 91.648438 54.300781 95.625 54.300781 99.414062 C 54.300781 103.761719 52.863281 107.367188 50.34375 107.367188 C 47.824219 107.367188 46.386719 103.699219 46.386719 99.621094 C 46.386719 95.417969 47.71875 91.648438 50.34375 91.648438 Z M 50.34375 91.648438 " fill-opacity="1" fill-rule="nonzero"/><path fill="#100f0d" d="M 58.050781 109.070312 L 64.914062 109.070312 L 64.914062 107 L 59.648438 107 L 59.648438 89.945312 L 58.050781 89.945312 Z M 58.050781 109.070312 " fill-opacity="1" fill-rule="nonzero"/><path fill="#100f0d" d="M 66.699219 109.007812 C 67.5 109.152344 68.460938 109.234375 69.589844 109.234375 C 71.988281 109.234375 73.894531 108.269531 75.0625 106.488281 C 76.210938 104.722656 76.824219 102.160156 76.824219 99.046875 C 76.824219 95.953125 76.1875 93.738281 75.082031 92.179688 C 74.015625 90.621094 72.375 89.804688 70.082031 89.804688 C 68.832031 89.804688 67.664062 89.96875 66.699219 90.191406 Z M 68.296875 92.015625 C 68.707031 91.875 69.34375 91.75 70.164062 91.75 C 73.523438 91.75 75.183594 94.621094 75.164062 99.128906 C 75.164062 104.292969 73.320312 107.246094 69.894531 107.246094 C 69.28125 107.246094 68.6875 107.222656 68.296875 107.101562 Z M 68.296875 92.015625 " fill-opacity="1" fill-rule="nonzero"/><path fill="#100f0d" d="M 87.789062 89.617188 C 84.488281 89.617188 82.050781 93.59375 82.050781 99.683594 C 82.050781 105.460938 84.34375 109.375 87.605469 109.375 C 90.761719 109.375 93.34375 105.890625 93.34375 99.3125 C 93.34375 93.636719 91.167969 89.617188 87.789062 89.617188 Z M 87.707031 91.648438 C 90.371094 91.648438 91.660156 95.625 91.660156 99.414062 C 91.660156 103.761719 90.226562 107.367188 87.707031 107.367188 C 85.183594 107.367188 83.75 103.699219 83.75 99.621094 C 83.75 95.417969 85.082031 91.648438 87.707031 91.648438 Z M 87.707031 91.648438 " fill-opacity="1" fill-rule="nonzero"/><path fill="#100f0d" d="M 95.390625 89.945312 L 95.390625 101.199219 C 95.390625 107.140625 97.296875 109.375 99.820312 109.375 C 102.503906 109.375 104.492188 106.976562 104.492188 101.097656 L 104.492188 89.945312 L 102.894531 89.945312 L 102.894531 101.261719 C 102.894531 105.480469 101.703125 107.367188 99.878906 107.367188 C 98.242188 107.367188 97.011719 105.542969 97.011719 101.261719 L 97.011719 89.945312 Z M 95.390625 89.945312 " fill-opacity="1" fill-rule="nonzero"/><path fill="#100f0d" d="M 109.605469 109.070312 L 111.222656 109.070312 L 111.222656 92.039062 L 114.996094 92.039062 L 114.996094 89.945312 L 105.851562 89.945312 L 105.851562 92.039062 L 109.605469 92.039062 Z M 109.605469 109.070312 " fill-opacity="1" fill-rule="nonzero"/><g clip-path="url(#aaba6ca994)"><path stroke-linecap="butt" transform="matrix(0.131171, 0, 0, -0.131171, 27.177975, 117.071654)" fill="none" stroke-linejoin="miter" d="M 65.469174 68.176311 C 70.472189 62.935057 80.29954 58.616979 89.382395 58.616979 C 111.479045 58.616979 122.199792 78.361021 122.199792 100.963928 C 122.199792 122.435202 114.129452 134.347142 98.286571 143.936255 C 85.362115 151.738576 79.644383 158.439043 79.644383 172.137775 C 79.644383 182.084245 84.498499 194.025966 97.303835 194.025966 C 105.791093 194.025966 112.074642 189.707887 115.112187 187.08726 L 118.44753 202.513224 C 114.248571 206.176145 107.309866 209.660388 97.720753 209.660388 C 79.495484 209.660388 67.375084 192.745432 67.375084 169.934065 C 67.375084 149.356188 76.874857 136.967769 92.151921 128.480512 C 104.808358 120.916429 109.811373 113.114108 109.811373 99.415376 C 109.811373 84.674349 102.574869 74.45986 90.186451 74.45986 C 81.877872 74.45986 73.956431 78.807718 68.506719 83.989413 Z M 177.024499 209.660388 C 151.979644 209.660388 133.486356 179.284939 133.486356 132.82837 C 133.486356 88.57551 150.848009 58.616979 175.624846 58.616979 C 199.538067 58.616979 219.13321 85.329506 219.13321 135.687236 C 219.13321 179.07648 202.605392 209.660388 177.024499 209.660388 Z M 176.488462 194.264205 C 196.589862 194.264205 206.357654 163.888756 206.357654 134.79384 C 206.357654 101.589305 195.517787 74.042942 176.339563 74.042942 C 157.280457 74.042942 146.410811 102.006223 146.410811 133.245288 C 146.410811 165.407528 156.446622 194.264205 176.488462 194.264205 Z M 235.30367 60.999367 L 287.448191 60.999367 L 287.448191 76.842248 L 247.39429 76.842248 L 247.39429 207.278 L 235.30367 207.278 Z M 301.206482 61.446065 C 307.341132 60.37399 314.607416 59.689053 323.213793 59.689053 C 341.439062 59.689053 355.91207 67.074457 364.637567 80.743409 C 373.422623 94.203902 378.12784 113.739485 378.12784 137.622926 C 378.12784 161.268129 373.273724 178.183085 364.935365 190.124805 C 356.716126 202.096306 344.327708 208.379854 326.966054 208.379854 C 317.376942 208.379854 308.591885 207.039761 301.206482 205.34231 Z M 313.356662 191.435119 C 316.572886 192.507193 321.248323 193.370809 327.531871 193.370809 C 353.082984 193.370809 365.620302 171.452838 365.501183 136.967769 C 365.501183 97.479686 351.445092 74.906558 325.596181 74.906558 C 320.861184 74.906558 316.394207 75.144797 313.356662 75.978632 Z M 461.839004 209.660388 C 436.794148 209.660388 418.33064 179.284939 418.33064 132.82837 C 418.33064 88.57551 435.692294 58.616979 460.469131 58.616979 C 484.382352 58.616979 503.977494 85.329506 503.977494 135.687236 C 503.977494 179.07648 487.419897 209.660388 461.839004 209.660388 Z M 461.302967 194.264205 C 481.434147 194.264205 491.172158 163.888756 491.172158 134.79384 C 491.172158 101.589305 480.362072 74.042942 461.183847 74.042942 C 442.094962 74.042942 431.255096 102.006223 431.255096 133.245288 C 431.255096 165.407528 441.290906 194.264205 461.302967 194.264205 Z M 519.999055 207.278 L 519.999055 121.095108 C 519.999055 75.770173 534.442283 58.616979 553.620508 58.616979 C 573.960147 58.616979 589.088312 77.080487 589.088312 122.018284 L 589.088312 207.278 L 576.878572 207.278 L 576.878572 120.67819 C 576.878572 88.337271 567.974396 74.042942 554.067206 74.042942 C 541.559668 74.042942 532.238574 87.920353 532.238574 120.67819 L 532.238574 207.278 Z M 628.308377 60.999367 L 640.547896 60.999367 L 640.547896 191.22666 L 669.225893 191.22666 L 669.225893 207.278 L 599.809058 207.278 L 599.809058 191.22666 L 628.308377 191.22666 Z M 628.308377 60.999367 " stroke="#100f0d" stroke-width="9.565" stroke-opacity="1" stroke-miterlimit="10"/></g></svg>