<svg xmlns="http://www.w3.org/2000/svg" xmlns:xlink="http://www.w3.org/1999/xlink" width="200" zoomAndPan="magnify" viewBox="0 0 150 149.999998" height="200" preserveAspectRatio="xMidYMid meet" version="1.0"><defs><clipPath id="246a0ca3a7"><path d="M 12.339844 36.699219 L 137.589844 36.699219 L 137.589844 113.199219 L 12.339844 113.199219 Z M 12.339844 36.699219 " clip-rule="nonzero"/></clipPath></defs><g clip-path="url(#246a0ca3a7)"><path fill="#ffa2ce" d="M 137.046875 54.160156 C 137.398438 53.101562 137.574219 52.003906 137.582031 50.890625 C 137.59375 48.746094 136.851562 46.804688 135.46875 45.308594 L 130.3125 39.730469 C 130.414062 39.835938 130.503906 39.953125 130.597656 40.066406 C 130.253906 39.652344 129.875 39.261719 129.441406 38.914062 C 127.785156 37.582031 125.5625 36.898438 122.820312 36.886719 C 120.660156 36.875 118.550781 37.171875 116.539062 37.757812 C 115.300781 38.125 111.546875 39.222656 110.523438 42.839844 C 110.296875 43.621094 110.234375 44.417969 110.316406 45.183594 C 110.253906 45.183594 110.183594 45.183594 110.117188 45.183594 C 108.625 45.175781 107.195312 45.382812 105.835938 45.800781 C 105.675781 45.585938 105.503906 45.378906 105.320312 45.179688 L 100.164062 39.601562 C 100.265625 39.707031 100.351562 39.820312 100.445312 39.933594 C 100.101562 39.519531 99.71875 39.128906 99.289062 38.78125 C 97.636719 37.449219 95.40625 36.765625 92.667969 36.753906 C 90.507812 36.742188 88.394531 37.039062 86.386719 37.625 C 85.148438 37.988281 81.394531 39.089844 80.375 42.707031 C 79.871094 44.429688 80.148438 46.207031 81.136719 47.628906 L 79.871094 51.703125 L 78 49.679688 C 78.175781 49.871094 78.34375 50.0625 78.503906 50.261719 C 78.035156 49.683594 77.503906 49.140625 76.917969 48.636719 C 74.210938 46.3125 70.484375 45.171875 65.515625 45.148438 C 62.449219 45.136719 59.507812 45.71875 56.777344 46.882812 C 56.433594 47.027344 56.105469 47.195312 55.773438 47.359375 C 55.734375 47.3125 55.699219 47.265625 55.65625 47.21875 L 50.503906 41.640625 C 50.554688 41.699219 50.605469 41.765625 50.65625 41.824219 C 50.359375 41.480469 50.03125 41.15625 49.65625 40.875 C 48.785156 40.214844 47.285156 39.429688 45.089844 39.421875 C 43.832031 39.414062 42.644531 39.65625 41.5625 40.136719 C 41.238281 40.28125 40.902344 40.453125 40.5625 40.664062 C 39.898438 40.390625 39.238281 40.160156 38.578125 39.96875 C 36.847656 39.472656 34.972656 39.214844 32.996094 39.207031 C 29.742188 39.191406 26.78125 40.023438 24.191406 41.679688 C 21.410156 43.457031 19.523438 45.878906 18.578125 48.890625 C 18.121094 50.289062 17.886719 51.742188 17.878906 53.199219 C 17.871094 54.460938 18.03125 55.65625 18.375 56.777344 C 18.03125 56.957031 17.703125 57.171875 17.394531 57.410156 C 16.195312 58.34375 15.324219 59.664062 14.785156 61.339844 L 12.796875 67.277344 C 12.507812 68.097656 12.355469 68.933594 12.351562 69.761719 C 12.34375 71.523438 12.96875 73.113281 14.125 74.335938 C 14.105469 74.320312 14.085938 74.304688 14.070312 74.285156 L 19.226562 79.867188 C 19.429688 80.085938 19.648438 80.292969 19.886719 80.488281 C 19.984375 80.570312 20.089844 80.652344 20.203125 80.734375 C 19.164062 82.601562 18.335938 84.667969 17.734375 86.917969 C 17.152344 89.136719 16.863281 91.101562 16.855469 92.925781 C 16.828125 97.722656 18.617188 100.847656 20.453125 102.792969 C 20.421875 102.761719 20.390625 102.734375 20.363281 102.699219 L 25.515625 108.277344 C 25.894531 108.6875 26.273438 109.046875 26.644531 109.355469 C 29.480469 111.757812 33.242188 112.984375 37.832031 113.003906 C 41.316406 113.019531 44.613281 112.328125 47.628906 110.960938 C 50.191406 109.800781 52.476562 108.152344 54.449219 106.066406 L 57.238281 109.085938 C 57.664062 109.550781 58.144531 109.976562 58.671875 110.363281 C 60.824219 111.945312 63.425781 112.75 66.402344 112.761719 C 68.367188 112.769531 70.308594 112.335938 72.164062 111.476562 C 72.253906 111.429688 72.351562 111.386719 72.441406 111.339844 C 74.195312 112.472656 76.351562 113.050781 78.863281 113.0625 C 80.882812 113.070312 82.773438 112.671875 84.484375 111.871094 C 86.140625 111.097656 87.507812 110.058594 88.550781 108.792969 L 89.414062 109.726562 C 89.78125 110.125 90.1875 110.496094 90.628906 110.832031 C 92.628906 112.355469 95.140625 113.132812 98.097656 113.148438 C 100.433594 113.15625 102.625 112.765625 104.628906 111.992188 C 106.625 111.21875 108.292969 110.214844 109.59375 109.019531 C 109.664062 108.953125 109.730469 108.886719 109.796875 108.824219 L 111.023438 110.148438 C 111.097656 110.230469 111.171875 110.308594 111.25 110.386719 C 112.925781 112.078125 115.085938 112.976562 117.5 112.988281 C 119.351562 112.996094 121.066406 112.507812 122.589844 111.53125 C 123.984375 110.640625 125.097656 109.464844 125.902344 108.039062 C 126.726562 106.578125 127.148438 105.027344 127.15625 103.429688 C 127.164062 101.882812 126.800781 100.429688 126.085938 99.144531 L 132.449219 87.941406 C 133.734375 85.648438 134.363281 83.523438 134.375 81.441406 C 134.386719 79.535156 133.835938 77.789062 132.796875 76.359375 C 133.46875 74.949219 133.628906 73.667969 133.609375 72.722656 C 133.601562 71.824219 133.429688 70.96875 133.089844 70.164062 C 132.914062 69.742188 132.695312 69.359375 132.441406 69.007812 L 127.285156 63.429688 L 132.441406 69.007812 Z M 137.046875 54.160156 " fill-opacity="1" fill-rule="nonzero"/></g><path fill="#029fff" d="M 32.644531 50.730469 C 32.652344 50.789062 32.664062 50.851562 32.679688 50.910156 C 32.6875 50.941406 32.691406 50.972656 32.703125 51.007812 C 32.71875 51.058594 32.738281 51.109375 32.761719 51.164062 C 32.769531 51.179688 32.773438 51.199219 32.78125 51.214844 C 32.828125 51.324219 32.890625 51.433594 32.957031 51.539062 C 32.972656 51.5625 32.988281 51.585938 33.003906 51.609375 C 33.078125 51.714844 33.160156 51.824219 33.257812 51.929688 L 38.414062 57.507812 C 38.316406 57.402344 38.234375 57.296875 38.160156 57.1875 C 38.144531 57.164062 38.128906 57.140625 38.113281 57.117188 C 38.042969 57.011719 37.984375 56.90625 37.9375 56.796875 C 37.929688 56.777344 37.921875 56.757812 37.917969 56.742188 C 37.882812 56.65625 37.859375 56.574219 37.835938 56.488281 C 37.820312 56.429688 37.808594 56.371094 37.800781 56.308594 C 37.785156 56.210938 37.769531 56.109375 37.769531 56.007812 C 37.769531 55.882812 37.785156 55.761719 37.804688 55.644531 C 37.808594 55.625 37.808594 55.605469 37.8125 55.589844 C 37.835938 55.472656 37.871094 55.363281 37.914062 55.253906 C 37.929688 55.214844 37.953125 55.179688 37.972656 55.140625 C 38.007812 55.0625 38.046875 54.988281 38.09375 54.917969 C 38.109375 54.894531 38.128906 54.871094 38.144531 54.84375 C 38.214844 54.75 38.292969 54.65625 38.382812 54.570312 C 38.792969 54.179688 39.292969 53.988281 39.890625 53.988281 C 40.703125 53.992188 41.492188 54.21875 42.261719 54.667969 C 42.613281 54.875 42.988281 55.15625 43.375 55.496094 L 46.078125 58.417969 C 46.414062 58.78125 46.6875 59.050781 46.90625 59.230469 C 47.351562 59.597656 47.867188 59.78125 48.460938 59.785156 C 49.03125 59.785156 49.460938 59.65625 49.742188 59.382812 C 49.808594 59.324219 49.871094 59.25 49.929688 59.171875 C 49.949219 59.144531 49.964844 59.117188 49.980469 59.09375 C 50.003906 59.058594 50.03125 59.027344 50.050781 58.992188 C 50.070312 58.960938 50.085938 58.925781 50.101562 58.894531 C 50.121094 58.859375 50.140625 58.824219 50.160156 58.785156 C 50.199219 58.707031 50.238281 58.621094 50.273438 58.53125 C 50.289062 58.5 50.304688 58.46875 50.316406 58.433594 C 50.320312 58.421875 50.324219 58.414062 50.332031 58.402344 C 50.375 58.277344 50.421875 58.148438 50.460938 58.007812 L 52.195312 52.421875 C 52.230469 52.324219 52.253906 52.226562 52.273438 52.132812 C 52.277344 52.121094 52.277344 52.109375 52.277344 52.101562 C 52.289062 52.054688 52.289062 52.011719 52.296875 51.96875 C 52.300781 51.917969 52.3125 51.871094 52.316406 51.820312 C 52.316406 51.792969 52.320312 51.761719 52.320312 51.730469 C 52.320312 51.652344 52.316406 51.574219 52.308594 51.503906 C 52.304688 51.488281 52.300781 51.476562 52.300781 51.464844 C 52.292969 51.394531 52.277344 51.328125 52.261719 51.265625 C 52.253906 51.238281 52.25 51.203125 52.242188 51.175781 C 52.238281 51.171875 52.234375 51.164062 52.234375 51.15625 C 52.214844 51.09375 52.183594 51.035156 52.15625 50.980469 C 52.140625 50.953125 52.132812 50.921875 52.117188 50.894531 C 52.070312 50.8125 52.011719 50.734375 51.949219 50.664062 L 46.792969 45.085938 C 46.859375 45.15625 46.914062 45.230469 46.960938 45.316406 C 46.976562 45.339844 46.988281 45.371094 47 45.398438 C 47.03125 45.457031 47.058594 45.515625 47.078125 45.578125 C 47.089844 45.613281 47.097656 45.648438 47.105469 45.6875 C 47.121094 45.75 47.136719 45.816406 47.144531 45.886719 C 47.15625 45.972656 47.164062 46.058594 47.164062 46.152344 C 47.164062 46.230469 47.152344 46.308594 47.140625 46.390625 C 47.136719 46.433594 47.132812 46.476562 47.125 46.519531 C 47.101562 46.625 47.078125 46.734375 47.042969 46.84375 L 45.308594 52.429688 C 45.261719 52.582031 45.210938 52.722656 45.160156 52.855469 C 45.148438 52.890625 45.132812 52.921875 45.121094 52.953125 C 45.082031 53.042969 45.042969 53.128906 45.003906 53.207031 C 44.988281 53.246094 44.96875 53.28125 44.949219 53.316406 C 44.910156 53.386719 44.867188 53.453125 44.828125 53.515625 C 44.808594 53.539062 44.792969 53.566406 44.773438 53.589844 C 44.714844 53.671875 44.652344 53.746094 44.589844 53.804688 C 44.304688 54.078125 43.875 54.207031 43.304688 54.207031 C 42.738281 54.203125 42.242188 54.027344 41.808594 53.695312 L 39.25 50.921875 C 38.472656 50.082031 37.757812 49.472656 37.105469 49.089844 C 36.339844 48.640625 35.546875 48.414062 34.734375 48.410156 C 34.136719 48.40625 33.636719 48.601562 33.226562 48.992188 C 33.136719 49.078125 33.0625 49.171875 32.992188 49.265625 C 32.972656 49.289062 32.957031 49.316406 32.9375 49.339844 C 32.921875 49.363281 32.902344 49.390625 32.886719 49.414062 C 32.859375 49.460938 32.839844 49.511719 32.816406 49.558594 C 32.796875 49.597656 32.773438 49.636719 32.757812 49.675781 C 32.753906 49.691406 32.746094 49.703125 32.738281 49.714844 C 32.707031 49.804688 32.679688 49.898438 32.660156 49.996094 C 32.65625 50 32.65625 50.003906 32.65625 50.007812 C 32.652344 50.027344 32.652344 50.046875 32.648438 50.066406 C 32.636719 50.144531 32.621094 50.226562 32.617188 50.308594 C 32.617188 50.347656 32.613281 50.386719 32.613281 50.429688 C 32.613281 50.496094 32.617188 50.566406 32.625 50.636719 C 32.628906 50.667969 32.640625 50.699219 32.644531 50.730469 Z M 32.644531 50.730469 " fill-opacity="1" fill-rule="nonzero"/><path fill="#029fff" d="M 31.269531 64.835938 C 32.132812 65.503906 33.25 66.261719 34.625 67.105469 C 35.921875 67.867188 36.878906 68.519531 37.496094 69.0625 C 37.597656 69.152344 37.691406 69.242188 37.777344 69.335938 L 32.621094 63.757812 C 32.535156 63.664062 32.441406 63.574219 32.339844 63.484375 C 31.722656 62.9375 30.765625 62.289062 29.46875 61.527344 C 28.09375 60.683594 26.976562 59.925781 26.113281 59.257812 C 25.71875 58.953125 25.347656 58.613281 25.003906 58.242188 L 30.15625 63.820312 C 30.503906 64.195312 30.875 64.53125 31.269531 64.835938 Z M 31.269531 64.835938 " fill-opacity="1" fill-rule="nonzero"/><path fill="#029fff" d="M 26.050781 76.738281 C 26.484375 76.539062 27.042969 76.152344 27.71875 75.585938 L 29.191406 74.378906 C 30.511719 75.414062 31.804688 76.148438 33.074219 76.585938 C 34.34375 77.023438 35.910156 77.246094 37.78125 77.253906 C 40.269531 77.265625 42.445312 76.714844 44.320312 75.601562 C 44.597656 75.4375 44.855469 75.257812 45.105469 75.070312 C 45.179688 75.015625 45.253906 74.953125 45.328125 74.894531 C 45.5 74.753906 45.671875 74.609375 45.832031 74.457031 C 45.902344 74.390625 45.972656 74.324219 46.042969 74.253906 C 46.21875 74.074219 46.390625 73.882812 46.550781 73.6875 C 46.582031 73.648438 46.621094 73.609375 46.652344 73.566406 C 46.839844 73.328125 47.011719 73.074219 47.171875 72.8125 C 47.183594 72.792969 47.199219 72.773438 47.214844 72.753906 C 47.265625 72.667969 47.308594 72.574219 47.359375 72.484375 C 47.425781 72.367188 47.488281 72.25 47.550781 72.128906 C 47.609375 72.011719 47.660156 71.886719 47.714844 71.765625 C 47.769531 71.640625 47.828125 71.515625 47.875 71.386719 C 47.886719 71.359375 47.902344 71.332031 47.914062 71.304688 C 47.988281 71.105469 48.058594 70.898438 48.121094 70.691406 C 48.210938 70.414062 48.28125 70.136719 48.34375 69.863281 C 48.351562 69.828125 48.363281 69.792969 48.371094 69.757812 C 48.382812 69.703125 48.386719 69.644531 48.398438 69.589844 C 48.417969 69.492188 48.433594 69.398438 48.449219 69.304688 C 48.464844 69.195312 48.476562 69.085938 48.488281 68.972656 C 48.5 68.878906 48.507812 68.785156 48.515625 68.691406 C 48.519531 68.652344 48.527344 68.609375 48.527344 68.566406 C 48.535156 68.4375 48.539062 68.308594 48.539062 68.179688 C 48.539062 67.933594 48.527344 67.695312 48.503906 67.460938 C 48.503906 67.433594 48.503906 67.40625 48.5 67.382812 C 48.5 67.363281 48.496094 67.34375 48.492188 67.324219 C 48.472656 67.136719 48.445312 66.949219 48.40625 66.765625 C 48.402344 66.746094 48.398438 66.730469 48.394531 66.710938 C 48.359375 66.546875 48.316406 66.386719 48.269531 66.226562 C 48.261719 66.203125 48.257812 66.179688 48.25 66.15625 C 48.246094 66.136719 48.234375 66.117188 48.226562 66.09375 C 48.15625 65.875 48.074219 65.660156 47.976562 65.449219 C 47.964844 65.421875 47.949219 65.394531 47.9375 65.363281 C 47.832031 65.148438 47.714844 64.933594 47.582031 64.726562 C 47.265625 64.230469 46.910156 63.773438 46.523438 63.355469 L 41.371094 57.773438 C 41.757812 58.191406 42.109375 58.652344 42.425781 59.148438 C 42.558594 59.351562 42.675781 59.566406 42.78125 59.785156 C 42.792969 59.8125 42.808594 59.84375 42.824219 59.871094 C 42.917969 60.078125 43 60.296875 43.074219 60.515625 C 43.085938 60.558594 43.101562 60.605469 43.113281 60.648438 C 43.160156 60.804688 43.203125 60.964844 43.238281 61.128906 C 43.242188 61.148438 43.246094 61.167969 43.25 61.1875 C 43.289062 61.371094 43.316406 61.554688 43.335938 61.746094 C 43.34375 61.789062 43.347656 61.835938 43.351562 61.882812 C 43.371094 62.117188 43.386719 62.355469 43.382812 62.597656 C 43.382812 62.769531 43.375 62.941406 43.359375 63.113281 C 43.355469 63.207031 43.34375 63.300781 43.335938 63.394531 C 43.324219 63.503906 43.308594 63.617188 43.292969 63.726562 C 43.277344 63.820312 43.261719 63.914062 43.242188 64.007812 C 43.226562 64.101562 43.207031 64.191406 43.1875 64.28125 C 43.125 64.558594 43.054688 64.835938 42.964844 65.109375 C 42.890625 65.351562 42.808594 65.582031 42.722656 65.808594 C 42.671875 65.9375 42.613281 66.0625 42.558594 66.1875 C 42.503906 66.308594 42.453125 66.433594 42.394531 66.550781 C 42.335938 66.671875 42.269531 66.789062 42.203125 66.902344 C 42.144531 67.015625 42.082031 67.128906 42.015625 67.234375 C 41.855469 67.496094 41.683594 67.75 41.496094 67.988281 C 41.464844 68.03125 41.425781 68.066406 41.394531 68.109375 C 41.234375 68.304688 41.066406 68.496094 40.886719 68.675781 C 40.816406 68.746094 40.746094 68.8125 40.675781 68.878906 C 40.515625 69.03125 40.347656 69.175781 40.171875 69.316406 C 40.097656 69.375 40.027344 69.4375 39.949219 69.492188 C 39.699219 69.679688 39.441406 69.859375 39.164062 70.023438 C 37.289062 71.132812 35.113281 71.683594 32.625 71.671875 C 30.757812 71.664062 29.1875 71.445312 27.921875 71.007812 C 26.652344 70.566406 25.355469 69.832031 24.035156 68.796875 L 22.566406 70.007812 C 21.886719 70.574219 21.328125 70.957031 20.894531 71.15625 C 20.460938 71.359375 19.976562 71.457031 19.433594 71.457031 C 18.8125 71.453125 18.320312 71.300781 17.957031 71.003906 C 17.898438 70.957031 17.847656 70.90625 17.800781 70.855469 L 22.957031 76.4375 C 23.003906 76.488281 23.054688 76.535156 23.109375 76.582031 C 23.472656 76.878906 23.964844 77.03125 24.589844 77.035156 C 25.132812 77.039062 25.617188 76.941406 26.050781 76.738281 Z M 26.050781 76.738281 " fill-opacity="1" fill-rule="nonzero"/><path fill="#029fff" d="M 57.207031 74.601562 C 57.429688 74.84375 57.675781 75.074219 57.9375 75.296875 C 59.730469 76.804688 62.507812 77.566406 66.265625 77.582031 C 68.644531 77.59375 70.859375 77.152344 72.910156 76.253906 C 74.957031 75.359375 76.6875 74.082031 78.105469 72.425781 C 78.246094 72.261719 78.378906 72.089844 78.511719 71.917969 L 83.027344 76.804688 C 83.074219 76.855469 83.128906 76.902344 83.195312 76.949219 C 83.515625 77.183594 84.03125 77.296875 84.734375 77.300781 L 93.984375 77.339844 C 94.824219 77.34375 95.449219 77.265625 95.855469 77.109375 C 95.949219 77.070312 96.03125 77.027344 96.109375 76.980469 C 96.136719 76.964844 96.15625 76.949219 96.179688 76.933594 C 96.234375 76.898438 96.28125 76.863281 96.328125 76.824219 C 96.351562 76.804688 96.371094 76.78125 96.394531 76.761719 C 96.433594 76.71875 96.472656 76.675781 96.503906 76.628906 C 96.523438 76.605469 96.539062 76.585938 96.554688 76.5625 C 96.558594 76.550781 96.570312 76.542969 96.574219 76.535156 C 96.613281 76.472656 96.644531 76.40625 96.671875 76.339844 C 96.675781 76.316406 96.679688 76.296875 96.6875 76.277344 C 96.695312 76.234375 96.699219 76.195312 96.703125 76.160156 C 96.703125 76.136719 96.703125 76.113281 96.699219 76.089844 C 96.699219 76.085938 96.699219 76.082031 96.699219 76.078125 C 96.699219 76.074219 96.699219 76.070312 96.699219 76.066406 C 96.695312 76.035156 96.691406 76.007812 96.679688 75.976562 C 96.671875 75.941406 96.652344 75.90625 96.632812 75.875 C 96.570312 75.78125 96.476562 75.667969 96.355469 75.535156 L 95.636719 74.757812 C 95.605469 74.703125 95.574219 74.644531 95.550781 74.578125 C 95.542969 74.554688 95.539062 74.535156 95.53125 74.511719 C 95.507812 74.433594 95.492188 74.355469 95.480469 74.265625 C 95.480469 74.257812 95.480469 74.246094 95.476562 74.238281 C 95.46875 74.15625 95.464844 74.074219 95.464844 73.984375 C 95.464844 73.910156 95.476562 73.828125 95.484375 73.746094 C 95.492188 73.652344 95.507812 73.550781 95.527344 73.441406 C 95.542969 73.339844 95.5625 73.242188 95.589844 73.132812 L 102.070312 52.480469 C 102.136719 52.289062 102.1875 52.097656 102.230469 51.902344 C 102.234375 51.878906 102.242188 51.855469 102.25 51.832031 C 102.257812 51.792969 102.261719 51.753906 102.269531 51.714844 C 102.28125 51.652344 102.289062 51.59375 102.300781 51.53125 C 102.3125 51.453125 102.320312 51.371094 102.328125 51.292969 C 102.335938 51.230469 102.34375 51.167969 102.347656 51.105469 C 102.347656 51.078125 102.351562 51.050781 102.355469 51.023438 C 102.359375 50.929688 102.363281 50.832031 102.363281 50.734375 C 102.363281 50.589844 102.355469 50.445312 102.34375 50.308594 C 102.335938 50.261719 102.328125 50.214844 102.320312 50.167969 C 102.316406 50.140625 102.3125 50.109375 102.308594 50.082031 C 102.285156 49.945312 102.253906 49.808594 102.214844 49.679688 C 102.207031 49.652344 102.195312 49.625 102.183594 49.597656 C 102.175781 49.570312 102.164062 49.542969 102.152344 49.519531 C 102.09375 49.363281 102.027344 49.214844 101.941406 49.074219 C 101.933594 49.058594 101.917969 49.039062 101.910156 49.023438 C 101.816406 48.878906 101.714844 48.738281 101.59375 48.609375 L 96.4375 43.03125 C 96.558594 43.160156 96.660156 43.296875 96.753906 43.445312 C 96.765625 43.460938 96.777344 43.476562 96.785156 43.496094 C 96.871094 43.636719 96.941406 43.785156 97 43.941406 C 97.007812 43.964844 97.019531 43.992188 97.027344 44.019531 C 97.082031 44.171875 97.125 44.335938 97.152344 44.503906 C 97.15625 44.53125 97.160156 44.5625 97.164062 44.589844 C 97.191406 44.773438 97.207031 44.960938 97.207031 45.15625 C 97.207031 45.28125 97.199219 45.40625 97.191406 45.527344 C 97.1875 45.589844 97.179688 45.652344 97.171875 45.714844 C 97.164062 45.792969 97.15625 45.871094 97.144531 45.953125 C 97.136719 46.011719 97.125 46.074219 97.113281 46.136719 C 97.101562 46.199219 97.085938 46.261719 97.074219 46.324219 C 97.03125 46.519531 96.980469 46.710938 96.914062 46.898438 L 90.433594 67.550781 C 90.414062 67.625 90.398438 67.695312 90.382812 67.765625 C 90.375 67.800781 90.378906 67.828125 90.371094 67.863281 C 90.351562 67.96875 90.335938 68.070312 90.328125 68.167969 C 90.324219 68.199219 90.316406 68.238281 90.316406 68.269531 C 90.3125 68.316406 90.3125 68.359375 90.3125 68.402344 C 90.308594 68.492188 90.316406 68.578125 90.324219 68.660156 C 90.324219 68.660156 90.324219 68.664062 90.324219 68.664062 C 90.324219 68.671875 90.328125 68.679688 90.328125 68.6875 C 90.335938 68.773438 90.355469 68.855469 90.375 68.933594 C 90.378906 68.945312 90.378906 68.957031 90.382812 68.96875 C 90.386719 68.980469 90.394531 68.988281 90.398438 69 C 90.425781 69.085938 90.460938 69.164062 90.507812 69.234375 C 90.566406 69.324219 90.640625 69.417969 90.722656 69.503906 L 91.492188 70.339844 C 91.515625 70.390625 91.539062 70.441406 91.542969 70.5 C 91.546875 70.503906 91.542969 70.507812 91.546875 70.511719 C 91.550781 70.585938 91.539062 70.667969 91.515625 70.757812 C 91.484375 70.839844 91.445312 70.914062 91.398438 70.984375 C 91.382812 71.007812 91.367188 71.027344 91.351562 71.050781 C 91.316406 71.09375 91.277344 71.140625 91.238281 71.183594 C 91.214844 71.203125 91.195312 71.222656 91.171875 71.242188 C 91.128906 71.285156 91.078125 71.320312 91.027344 71.355469 C 91.003906 71.371094 90.980469 71.386719 90.957031 71.402344 C 90.878906 71.449219 90.792969 71.492188 90.699219 71.53125 C 90.292969 71.6875 89.667969 71.765625 88.828125 71.761719 L 79.578125 71.722656 C 79.25 71.71875 78.964844 71.691406 78.71875 71.640625 C 78.773438 71.566406 78.828125 71.488281 78.882812 71.410156 C 79.027344 71.207031 79.164062 70.996094 79.296875 70.78125 C 79.328125 70.730469 79.363281 70.683594 79.394531 70.632812 C 79.410156 70.613281 79.417969 70.585938 79.433594 70.5625 C 79.617188 70.257812 79.785156 69.941406 79.945312 69.621094 C 79.976562 69.554688 80.003906 69.484375 80.039062 69.417969 C 80.167969 69.136719 80.292969 68.847656 80.40625 68.554688 C 80.425781 68.507812 80.449219 68.464844 80.464844 68.417969 C 80.476562 68.386719 80.484375 68.355469 80.496094 68.328125 C 80.566406 68.144531 80.628906 67.953125 80.6875 67.765625 C 80.71875 67.671875 80.75 67.582031 80.78125 67.488281 C 80.867188 67.203125 80.945312 66.914062 81.015625 66.617188 C 81.03125 66.550781 81.042969 66.484375 81.058594 66.417969 C 81.066406 66.371094 81.074219 66.324219 81.082031 66.277344 C 81.136719 66.015625 81.179688 65.757812 81.21875 65.507812 C 81.226562 65.4375 81.238281 65.371094 81.246094 65.304688 C 81.289062 65.007812 81.316406 64.722656 81.332031 64.449219 C 81.332031 64.429688 81.335938 64.410156 81.335938 64.394531 C 81.347656 64.226562 81.351562 64.066406 81.351562 63.90625 C 81.355469 63.59375 81.335938 63.292969 81.308594 62.996094 C 81.304688 62.964844 81.308594 62.929688 81.304688 62.898438 C 81.296875 62.824219 81.28125 62.753906 81.273438 62.683594 C 81.253906 62.539062 81.234375 62.398438 81.207031 62.257812 C 81.1875 62.148438 81.164062 62.042969 81.140625 61.9375 C 81.109375 61.800781 81.074219 61.667969 81.035156 61.535156 C 81.019531 61.484375 81.011719 61.429688 80.996094 61.378906 C 80.980469 61.332031 80.957031 61.285156 80.941406 61.234375 C 80.894531 61.09375 80.84375 60.957031 80.789062 60.824219 C 80.75 60.730469 80.710938 60.636719 80.667969 60.542969 C 80.605469 60.40625 80.535156 60.273438 80.464844 60.144531 C 80.417969 60.058594 80.375 59.972656 80.328125 59.890625 C 80.242188 59.75 80.148438 59.613281 80.054688 59.476562 C 80.007812 59.410156 79.964844 59.34375 79.917969 59.277344 C 79.769531 59.078125 79.609375 58.886719 79.4375 58.699219 L 74.28125 53.121094 C 74.453125 53.308594 74.613281 53.5 74.761719 53.699219 C 74.808594 53.761719 74.851562 53.832031 74.898438 53.898438 C 74.992188 54.035156 75.085938 54.171875 75.171875 54.3125 C 75.222656 54.394531 75.265625 54.480469 75.308594 54.5625 C 75.382812 54.695312 75.449219 54.828125 75.515625 54.964844 C 75.554688 55.058594 75.59375 55.148438 75.632812 55.242188 C 75.6875 55.378906 75.738281 55.515625 75.785156 55.65625 C 75.820312 55.757812 75.851562 55.855469 75.882812 55.957031 C 75.917969 56.089844 75.953125 56.222656 75.984375 56.359375 C 76.007812 56.464844 76.03125 56.570312 76.050781 56.679688 C 76.078125 56.820312 76.097656 56.960938 76.117188 57.105469 C 76.128906 57.207031 76.144531 57.3125 76.152344 57.417969 C 76.183594 57.714844 76.199219 58.015625 76.199219 58.328125 C 76.195312 58.503906 76.1875 58.683594 76.175781 58.871094 C 76.160156 59.144531 76.132812 59.429688 76.09375 59.722656 C 76.082031 59.792969 76.070312 59.859375 76.0625 59.929688 C 76.023438 60.179688 75.980469 60.4375 75.925781 60.699219 C 75.90625 60.8125 75.886719 60.921875 75.859375 61.039062 C 75.789062 61.335938 75.710938 61.625 75.625 61.910156 C 75.597656 62.003906 75.5625 62.09375 75.535156 62.1875 C 75.472656 62.375 75.410156 62.5625 75.339844 62.75 C 75.3125 62.824219 75.28125 62.902344 75.253906 62.976562 C 75.136719 63.269531 75.015625 63.558594 74.882812 63.839844 C 74.851562 63.90625 74.820312 63.972656 74.789062 64.039062 C 74.628906 64.363281 74.460938 64.675781 74.277344 64.984375 C 74.234375 65.058594 74.1875 65.128906 74.140625 65.203125 C 74.007812 65.417969 73.871094 65.625 73.726562 65.832031 C 73.671875 65.910156 73.617188 65.988281 73.5625 66.066406 C 73.367188 66.332031 73.164062 66.59375 72.949219 66.847656 C 71.53125 68.503906 69.800781 69.78125 67.753906 70.675781 C 66.917969 71.042969 66.054688 71.328125 65.164062 71.542969 C 65.164062 71.539062 65.164062 71.535156 65.164062 71.527344 C 65.191406 71.355469 65.222656 71.167969 65.257812 70.972656 C 65.269531 70.921875 65.28125 70.863281 65.289062 70.808594 C 65.316406 70.679688 65.34375 70.546875 65.375 70.410156 C 65.40625 70.257812 65.441406 70.101562 65.480469 69.9375 C 65.507812 69.824219 65.535156 69.714844 65.5625 69.597656 C 65.605469 69.421875 65.652344 69.238281 65.703125 69.050781 C 65.734375 68.933594 65.765625 68.820312 65.796875 68.695312 C 65.855469 68.484375 65.921875 68.261719 65.984375 68.035156 C 66.015625 67.925781 66.046875 67.824219 66.078125 67.710938 C 66.179688 67.367188 66.289062 67.007812 66.40625 66.636719 C 66.507812 66.3125 66.605469 66.003906 66.707031 65.707031 C 66.734375 65.613281 66.765625 65.523438 66.796875 65.433594 C 66.863281 65.230469 66.929688 65.03125 66.996094 64.839844 C 67.03125 64.742188 67.0625 64.644531 67.097656 64.550781 C 67.160156 64.371094 67.222656 64.199219 67.285156 64.03125 C 67.316406 63.941406 67.347656 63.855469 67.378906 63.769531 C 67.425781 63.648438 67.46875 63.539062 67.511719 63.421875 C 67.574219 63.265625 67.632812 63.109375 67.691406 62.964844 C 67.734375 62.863281 67.773438 62.761719 67.816406 62.664062 C 67.875 62.527344 67.929688 62.398438 67.984375 62.273438 C 68.027344 62.179688 68.066406 62.09375 68.105469 62.007812 C 68.160156 61.890625 68.214844 61.78125 68.265625 61.675781 C 68.304688 61.59375 68.34375 61.519531 68.382812 61.445312 C 68.433594 61.347656 68.484375 61.253906 68.535156 61.167969 C 68.585938 61.078125 68.640625 60.984375 68.6875 60.90625 C 69.328125 59.898438 69.929688 59.390625 70.5 59.394531 C 70.800781 59.394531 71.035156 59.492188 71.210938 59.679688 L 66.054688 54.097656 C 65.882812 53.910156 65.644531 53.816406 65.347656 53.816406 C 64.777344 53.8125 64.171875 54.320312 63.53125 55.328125 C 63.507812 55.367188 63.480469 55.410156 63.457031 55.453125 C 63.429688 55.492188 63.40625 55.546875 63.382812 55.585938 C 63.332031 55.675781 63.28125 55.765625 63.226562 55.867188 C 63.1875 55.9375 63.148438 56.015625 63.109375 56.09375 C 63.058594 56.199219 63.003906 56.3125 62.953125 56.425781 C 62.910156 56.511719 62.871094 56.601562 62.828125 56.695312 C 62.773438 56.816406 62.71875 56.949219 62.660156 57.085938 C 62.621094 57.183594 62.578125 57.28125 62.535156 57.386719 C 62.476562 57.53125 62.417969 57.6875 62.359375 57.84375 C 62.328125 57.917969 62.300781 57.988281 62.269531 58.066406 C 62.253906 58.109375 62.238281 58.152344 62.222656 58.191406 C 62.191406 58.277344 62.160156 58.363281 62.128906 58.449219 C 62.066406 58.617188 62.003906 58.792969 61.941406 58.96875 C 61.910156 59.066406 61.875 59.160156 61.839844 59.261719 C 61.777344 59.453125 61.707031 59.652344 61.640625 59.855469 C 61.609375 59.945312 61.582031 60.035156 61.550781 60.125 C 61.453125 60.425781 61.351562 60.734375 61.25 61.058594 C 61.132812 61.429688 61.027344 61.785156 60.921875 62.132812 C 60.890625 62.242188 60.863281 62.347656 60.828125 62.457031 C 60.765625 62.683594 60.699219 62.90625 60.644531 63.117188 C 60.609375 63.242188 60.578125 63.355469 60.546875 63.472656 C 60.5 63.660156 60.449219 63.84375 60.40625 64.015625 C 60.378906 64.132812 60.351562 64.246094 60.324219 64.359375 C 60.289062 64.519531 60.25 64.679688 60.21875 64.832031 C 60.207031 64.882812 60.191406 64.941406 60.183594 64.992188 C 60.164062 65.074219 60.152344 65.152344 60.136719 65.230469 C 60.125 65.285156 60.113281 65.34375 60.101562 65.394531 C 60.066406 65.589844 60.035156 65.777344 60.007812 65.949219 C 60.007812 65.972656 60.003906 65.992188 60 66.015625 C 59.980469 66.164062 59.964844 66.308594 59.953125 66.441406 C 59.945312 66.488281 59.945312 66.53125 59.941406 66.574219 C 59.9375 66.617188 59.929688 66.664062 59.929688 66.707031 C 59.925781 66.800781 59.921875 66.886719 59.921875 66.972656 C 59.917969 67.132812 59.925781 67.277344 59.941406 67.40625 C 59.941406 67.417969 59.941406 67.425781 59.941406 67.433594 C 59.949219 67.527344 59.964844 67.613281 59.980469 67.691406 C 59.988281 67.710938 59.992188 67.730469 59.996094 67.746094 C 60.003906 67.777344 60.007812 67.808594 60.019531 67.835938 C 60.027344 67.871094 60.042969 67.898438 60.054688 67.929688 C 60.066406 67.953125 60.074219 67.976562 60.085938 67.996094 C 60.117188 68.0625 60.152344 68.125 60.195312 68.171875 L 63.589844 71.839844 C 62.785156 71.953125 61.957031 72.007812 61.109375 72.003906 C 57.351562 71.988281 54.574219 71.226562 52.78125 69.71875 C 52.519531 69.496094 52.277344 69.265625 52.050781 69.023438 Z M 57.207031 74.601562 " fill-opacity="1" fill-rule="nonzero"/><path fill="#029fff" d="M 132.496094 50.445312 C 132.492188 50.398438 132.484375 50.351562 132.476562 50.304688 C 132.472656 50.273438 132.46875 50.246094 132.460938 50.21875 C 132.4375 50.082031 132.410156 49.945312 132.371094 49.820312 C 132.359375 49.789062 132.347656 49.761719 132.339844 49.734375 C 132.328125 49.707031 132.320312 49.679688 132.308594 49.652344 C 132.25 49.5 132.179688 49.351562 132.097656 49.210938 C 132.085938 49.191406 132.074219 49.175781 132.0625 49.15625 C 131.96875 49.011719 131.867188 48.875 131.746094 48.742188 L 126.59375 43.164062 C 126.710938 43.292969 126.8125 43.433594 126.90625 43.578125 C 126.917969 43.597656 126.929688 43.613281 126.941406 43.632812 C 127.023438 43.773438 127.09375 43.917969 127.152344 44.074219 C 127.164062 44.101562 127.171875 44.128906 127.183594 44.15625 C 127.238281 44.308594 127.277344 44.46875 127.308594 44.640625 C 127.3125 44.667969 127.316406 44.695312 127.320312 44.722656 C 127.347656 44.90625 127.363281 45.09375 127.363281 45.289062 C 127.363281 45.414062 127.355469 45.535156 127.347656 45.65625 C 127.339844 45.71875 127.335938 45.777344 127.328125 45.839844 C 127.320312 45.921875 127.308594 46 127.296875 46.078125 C 127.289062 46.140625 127.277344 46.203125 127.265625 46.261719 C 127.257812 46.320312 127.242188 46.382812 127.230469 46.441406 C 127.183594 46.640625 127.132812 46.835938 127.066406 47.035156 L 121.164062 66.066406 C 121.140625 66.152344 121.125 66.226562 121.109375 66.289062 C 121.109375 66.296875 121.109375 66.300781 121.105469 66.308594 C 121.097656 66.355469 121.09375 66.386719 121.089844 66.417969 C 121.085938 66.441406 121.082031 66.472656 121.078125 66.488281 C 121.078125 66.5 121.078125 66.503906 121.078125 66.511719 C 121.078125 66.546875 121.082031 66.578125 121.082031 66.609375 C 121.089844 66.65625 121.097656 66.699219 121.109375 66.742188 C 121.109375 66.742188 121.113281 66.746094 121.113281 66.746094 C 121.140625 66.824219 121.175781 66.890625 121.226562 66.945312 L 122.957031 68.816406 C 122.953125 68.824219 122.949219 68.828125 122.949219 68.832031 C 122.9375 68.855469 122.925781 68.875 122.914062 68.894531 C 122.808594 69.078125 122.6875 69.257812 122.542969 69.4375 C 121.960938 70.191406 121.179688 70.808594 120.207031 71.292969 C 119.226562 71.773438 118.167969 72.015625 117.035156 72.011719 C 115.679688 72.003906 114.503906 71.738281 113.503906 71.21875 C 113.496094 71.214844 113.488281 71.210938 113.476562 71.203125 C 113.476562 71.199219 113.472656 71.199219 113.472656 71.195312 C 113.464844 71.167969 113.457031 71.136719 113.453125 71.109375 C 113.417969 70.972656 113.390625 70.828125 113.371094 70.667969 C 113.371094 70.660156 113.371094 70.65625 113.367188 70.648438 C 113.347656 70.460938 113.339844 70.261719 113.339844 70.042969 C 113.335938 69.75 113.347656 69.441406 113.367188 69.128906 C 113.378906 68.953125 113.402344 68.769531 113.421875 68.585938 C 113.441406 68.410156 113.457031 68.234375 113.484375 68.050781 C 113.507812 67.863281 113.546875 67.667969 113.582031 67.472656 C 113.617188 67.273438 113.652344 67.074219 113.695312 66.871094 C 113.710938 66.804688 113.726562 66.738281 113.742188 66.671875 C 113.820312 66.320312 113.910156 65.960938 114.015625 65.589844 C 114.121094 65.222656 114.234375 64.871094 114.351562 64.527344 C 114.378906 64.453125 114.40625 64.375 114.433594 64.296875 C 114.550781 63.972656 114.675781 63.65625 114.804688 63.355469 C 114.828125 63.308594 114.847656 63.261719 114.871094 63.214844 C 115.011719 62.898438 115.15625 62.589844 115.316406 62.300781 C 115.320312 62.292969 115.324219 62.285156 115.328125 62.277344 C 115.496094 61.964844 115.675781 61.664062 115.863281 61.378906 C 116.625 60.222656 117.402344 59.640625 118.1875 59.644531 C 118.695312 59.648438 119.171875 59.839844 119.601562 60.222656 L 114.445312 54.640625 C 114.015625 54.261719 113.542969 54.070312 113.03125 54.066406 C 112.246094 54.0625 111.46875 54.644531 110.707031 55.800781 C 110.621094 55.929688 110.539062 56.0625 110.457031 56.199219 C 110.359375 56.363281 110.265625 56.527344 110.171875 56.699219 C 110.167969 56.707031 110.164062 56.714844 110.160156 56.722656 C 110.003906 57.011719 109.855469 57.320312 109.714844 57.636719 C 109.691406 57.683594 109.671875 57.730469 109.652344 57.777344 C 109.546875 58.011719 109.449219 58.253906 109.355469 58.5 C 109.328125 58.570312 109.304688 58.648438 109.277344 58.71875 C 109.25 58.792969 109.222656 58.871094 109.195312 58.949219 C 109.078125 59.292969 108.964844 59.644531 108.859375 60.011719 C 108.753906 60.378906 108.667969 60.738281 108.585938 61.09375 C 108.570312 61.160156 108.554688 61.226562 108.539062 61.292969 C 108.53125 61.34375 108.515625 61.394531 108.503906 61.449219 C 108.472656 61.601562 108.453125 61.746094 108.425781 61.894531 C 108.390625 62.085938 108.355469 62.28125 108.328125 62.46875 C 108.300781 62.652344 108.285156 62.828125 108.265625 63.007812 C 108.246094 63.1875 108.226562 63.375 108.214844 63.550781 C 108.210938 63.585938 108.203125 63.625 108.203125 63.660156 C 108.1875 63.9375 108.183594 64.203125 108.1875 64.464844 C 108.183594 64.679688 108.195312 64.878906 108.210938 65.0625 C 108.214844 65.0625 108.214844 65.066406 108.214844 65.066406 C 108.214844 65.074219 108.214844 65.082031 108.21875 65.089844 C 108.234375 65.25 108.261719 65.394531 108.296875 65.527344 C 108.304688 65.558594 108.308594 65.589844 108.316406 65.617188 C 108.324219 65.640625 108.328125 65.664062 108.335938 65.6875 C 108.359375 65.761719 108.390625 65.824219 108.421875 65.894531 C 108.4375 65.933594 108.453125 65.980469 108.472656 66.015625 C 108.53125 66.132812 108.601562 66.234375 108.679688 66.320312 L 111.390625 69.25 C 110.667969 70.160156 109.847656 70.839844 108.917969 71.28125 C 107.96875 71.738281 106.96875 71.964844 105.914062 71.960938 C 104.667969 71.957031 103.515625 71.636719 102.449219 71.011719 C 101.886719 70.679688 101.382812 70.273438 100.941406 69.796875 L 106.097656 75.375 C 106.539062 75.851562 107.042969 76.257812 107.605469 76.589844 C 108.671875 77.214844 109.824219 77.535156 111.066406 77.539062 C 112.125 77.546875 113.125 77.316406 114.074219 76.859375 C 114.972656 76.429688 115.769531 75.777344 116.476562 74.910156 L 117.269531 75.769531 C 117.636719 76.164062 118.097656 76.507812 118.660156 76.800781 C 119.660156 77.320312 120.835938 77.582031 122.1875 77.589844 C 122.792969 77.59375 123.371094 77.519531 123.929688 77.382812 C 123.921875 77.414062 123.917969 77.441406 123.910156 77.472656 C 123.890625 77.535156 123.875 77.601562 123.855469 77.664062 C 123.808594 77.8125 123.757812 77.960938 123.703125 78.113281 C 123.6875 78.152344 123.675781 78.191406 123.660156 78.234375 C 123.570312 78.46875 123.46875 78.710938 123.355469 78.957031 C 123.328125 79.011719 123.296875 79.074219 123.269531 79.132812 C 123.148438 79.378906 123.023438 79.632812 122.875 79.890625 L 116.445312 91.21875 C 116.371094 91.359375 116.296875 91.484375 116.222656 91.609375 C 116.195312 91.648438 116.171875 91.683594 116.148438 91.722656 C 116.09375 91.800781 116.042969 91.878906 115.988281 91.949219 C 115.964844 91.988281 115.9375 92.023438 115.910156 92.058594 C 115.855469 92.125 115.800781 92.1875 115.75 92.246094 C 115.722656 92.269531 115.699219 92.300781 115.675781 92.324219 C 115.597656 92.402344 115.523438 92.472656 115.445312 92.53125 C 115.105469 92.789062 114.691406 92.914062 114.203125 92.910156 C 113.71875 92.910156 113.351562 92.773438 113.101562 92.503906 L 116.652344 96.34375 C 116.652344 96.347656 116.65625 96.351562 116.65625 96.355469 C 116.6875 96.425781 116.714844 96.496094 116.738281 96.570312 C 116.753906 96.617188 116.769531 96.664062 116.785156 96.710938 C 116.800781 96.773438 116.816406 96.835938 116.832031 96.898438 C 116.84375 96.953125 116.859375 97.003906 116.867188 97.058594 C 116.878906 97.121094 116.890625 97.1875 116.898438 97.253906 C 116.90625 97.304688 116.914062 97.359375 116.917969 97.410156 C 116.929688 97.546875 116.9375 97.6875 116.9375 97.828125 C 116.9375 97.945312 116.921875 98.0625 116.914062 98.179688 C 116.902344 98.292969 116.886719 98.40625 116.867188 98.519531 C 116.855469 98.597656 116.835938 98.675781 116.820312 98.753906 C 116.789062 98.882812 116.75 99.015625 116.703125 99.148438 C 116.675781 99.230469 116.652344 99.3125 116.617188 99.394531 C 116.601562 99.429688 116.585938 99.46875 116.570312 99.503906 C 116.5 99.664062 116.425781 99.820312 116.339844 99.976562 C 116.273438 100.09375 116.195312 100.199219 116.121094 100.308594 C 116.074219 100.378906 116.03125 100.449219 115.984375 100.511719 C 115.914062 100.605469 115.835938 100.691406 115.761719 100.777344 C 115.710938 100.835938 115.664062 100.894531 115.609375 100.949219 C 115.519531 101.042969 115.425781 101.128906 115.328125 101.214844 C 115.277344 101.257812 115.234375 101.300781 115.183594 101.34375 C 115.035156 101.464844 114.875 101.582031 114.707031 101.691406 C 114.011719 102.132812 113.234375 102.351562 112.371094 102.347656 C 111.3125 102.34375 110.421875 101.976562 109.695312 101.246094 C 109.660156 101.207031 109.625 101.171875 109.59375 101.136719 L 114.746094 106.714844 C 114.78125 106.75 114.816406 106.789062 114.851562 106.824219 C 115.578125 107.554688 116.46875 107.921875 117.523438 107.929688 C 118.390625 107.933594 119.167969 107.710938 119.863281 107.269531 C 120.03125 107.160156 120.1875 107.046875 120.339844 106.921875 C 120.390625 106.882812 120.433594 106.835938 120.484375 106.792969 C 120.578125 106.707031 120.675781 106.621094 120.765625 106.53125 C 120.816406 106.476562 120.867188 106.414062 120.914062 106.355469 C 120.992188 106.269531 121.070312 106.183594 121.136719 106.09375 C 121.1875 106.027344 121.230469 105.957031 121.277344 105.890625 C 121.328125 105.816406 121.378906 105.746094 121.425781 105.671875 C 121.449219 105.632812 121.472656 105.59375 121.496094 105.554688 C 121.582031 105.398438 121.65625 105.242188 121.726562 105.085938 C 121.742188 105.046875 121.757812 105.011719 121.773438 104.972656 C 121.789062 104.9375 121.804688 104.902344 121.816406 104.867188 C 121.835938 104.820312 121.84375 104.773438 121.859375 104.726562 C 121.902344 104.59375 121.941406 104.464844 121.972656 104.332031 C 121.984375 104.292969 122 104.257812 122.007812 104.21875 C 122.015625 104.179688 122.015625 104.140625 122.023438 104.097656 C 122.042969 103.984375 122.058594 103.871094 122.066406 103.757812 C 122.074219 103.710938 122.085938 103.660156 122.085938 103.613281 C 122.089844 103.542969 122.09375 103.476562 122.09375 103.40625 C 122.09375 103.265625 122.085938 103.125 122.074219 102.992188 C 122.070312 102.976562 122.074219 102.964844 122.070312 102.953125 C 122.066406 102.910156 122.058594 102.871094 122.054688 102.832031 C 122.042969 102.765625 122.035156 102.699219 122.023438 102.636719 C 122.011719 102.582031 122 102.53125 121.988281 102.476562 C 121.972656 102.414062 121.957031 102.351562 121.941406 102.292969 C 121.933594 102.273438 121.929688 102.253906 121.925781 102.234375 C 121.917969 102.207031 121.902344 102.179688 121.894531 102.152344 C 121.867188 102.078125 121.839844 102.003906 121.8125 101.933594 C 121.792969 101.886719 121.773438 101.84375 121.753906 101.796875 C 121.71875 101.726562 121.683594 101.660156 121.644531 101.589844 C 121.621094 101.546875 121.601562 101.507812 121.574219 101.464844 C 121.53125 101.394531 121.484375 101.324219 121.433594 101.253906 C 121.410156 101.21875 121.386719 101.183594 121.363281 101.148438 C 121.285156 101.046875 121.203125 100.949219 121.113281 100.851562 L 118.871094 98.425781 C 119.019531 98.464844 119.175781 98.488281 119.355469 98.492188 C 119.84375 98.492188 120.261719 98.367188 120.597656 98.109375 C 120.675781 98.050781 120.753906 97.980469 120.832031 97.902344 C 120.855469 97.878906 120.878906 97.851562 120.902344 97.824219 C 120.957031 97.765625 121.011719 97.703125 121.0625 97.636719 C 121.089844 97.601562 121.117188 97.566406 121.144531 97.53125 C 121.199219 97.457031 121.25 97.382812 121.304688 97.300781 C 121.328125 97.261719 121.351562 97.226562 121.375 97.1875 C 121.386719 97.167969 121.398438 97.15625 121.40625 97.136719 C 121.472656 97.03125 121.535156 96.917969 121.601562 96.796875 L 128.03125 85.472656 C 128.175781 85.210938 128.304688 84.960938 128.425781 84.710938 C 128.453125 84.652344 128.480469 84.59375 128.507812 84.535156 C 128.621094 84.289062 128.726562 84.046875 128.816406 83.8125 C 128.816406 83.808594 128.820312 83.800781 128.824219 83.796875 C 128.835938 83.761719 128.847656 83.726562 128.859375 83.691406 C 128.914062 83.539062 128.964844 83.390625 129.007812 83.246094 C 129.03125 83.179688 129.046875 83.113281 129.0625 83.050781 C 129.097656 82.925781 129.128906 82.804688 129.15625 82.6875 C 129.164062 82.652344 129.175781 82.617188 129.183594 82.585938 C 129.191406 82.542969 129.195312 82.5 129.203125 82.460938 C 129.21875 82.386719 129.230469 82.3125 129.242188 82.242188 C 129.253906 82.15625 129.265625 82.078125 129.273438 81.996094 C 129.28125 81.925781 129.289062 81.851562 129.292969 81.78125 C 129.296875 81.75 129.300781 81.714844 129.304688 81.683594 C 129.308594 81.59375 129.3125 81.507812 129.3125 81.417969 C 129.3125 81.25 129.304688 81.089844 129.289062 80.933594 C 129.28125 80.882812 129.273438 80.832031 129.265625 80.785156 C 129.261719 80.75 129.257812 80.71875 129.25 80.683594 C 129.222656 80.527344 129.191406 80.371094 129.144531 80.226562 C 129.136719 80.195312 129.125 80.171875 129.113281 80.140625 C 129.105469 80.113281 129.09375 80.085938 129.082031 80.058594 C 129.019531 79.886719 128.941406 79.71875 128.847656 79.5625 C 128.839844 79.546875 128.824219 79.527344 128.8125 79.511719 C 128.714844 79.351562 128.601562 79.195312 128.46875 79.054688 L 126.078125 76.464844 C 126.726562 76.058594 127.269531 75.574219 127.699219 75.019531 C 127.832031 74.851562 127.945312 74.683594 128.046875 74.515625 C 128.054688 74.503906 128.0625 74.488281 128.070312 74.476562 C 128.082031 74.453125 128.089844 74.433594 128.101562 74.414062 C 128.199219 74.242188 128.285156 74.070312 128.347656 73.902344 C 128.351562 73.898438 128.351562 73.894531 128.351562 73.894531 C 128.351562 73.890625 128.355469 73.890625 128.355469 73.886719 C 128.414062 73.734375 128.457031 73.582031 128.488281 73.429688 C 128.492188 73.410156 128.492188 73.394531 128.496094 73.375 C 128.503906 73.335938 128.507812 73.292969 128.511719 73.25 C 128.523438 73.175781 128.539062 73.097656 128.542969 73.019531 C 128.546875 72.945312 128.546875 72.867188 128.546875 72.789062 C 128.546875 72.714844 128.542969 72.644531 128.535156 72.578125 C 128.53125 72.554688 128.527344 72.535156 128.523438 72.511719 C 128.515625 72.460938 128.503906 72.414062 128.492188 72.367188 C 128.484375 72.335938 128.484375 72.300781 128.472656 72.273438 C 128.460938 72.226562 128.445312 72.183594 128.425781 72.144531 C 128.390625 72.0625 128.351562 71.996094 128.308594 71.949219 L 126.75 70.261719 L 132.222656 52.613281 C 132.289062 52.417969 132.339844 52.21875 132.382812 52.019531 C 132.390625 51.996094 132.398438 51.972656 132.40625 51.945312 C 132.410156 51.910156 132.414062 51.875 132.421875 51.839844 C 132.433594 51.78125 132.445312 51.71875 132.453125 51.660156 C 132.464844 51.578125 132.476562 51.5 132.484375 51.417969 C 132.492188 51.359375 132.496094 51.296875 132.5 51.234375 C 132.503906 51.207031 132.507812 51.175781 132.507812 51.148438 C 132.515625 51.054688 132.515625 50.960938 132.519531 50.871094 C 132.519531 50.722656 132.511719 50.582031 132.496094 50.445312 Z M 132.496094 50.445312 " fill-opacity="1" fill-rule="nonzero"/><path fill="#029fff" d="M 56.023438 91 C 56.054688 90.726562 56.082031 90.457031 56.101562 90.191406 C 56.105469 90.136719 56.113281 90.082031 56.117188 90.027344 C 56.132812 89.777344 56.140625 89.53125 56.140625 89.289062 C 56.140625 88.992188 56.128906 88.707031 56.113281 88.425781 C 56.109375 88.34375 56.101562 88.261719 56.09375 88.183594 C 56.089844 88.085938 56.082031 87.984375 56.074219 87.890625 C 56.066406 87.816406 56.050781 87.753906 56.042969 87.683594 C 56.019531 87.492188 55.988281 87.300781 55.957031 87.117188 C 55.933594 86.988281 55.910156 86.863281 55.882812 86.738281 C 55.84375 86.554688 55.796875 86.375 55.746094 86.195312 C 55.722656 86.113281 55.707031 86.03125 55.683594 85.949219 C 55.671875 85.917969 55.65625 85.882812 55.644531 85.851562 C 55.59375 85.691406 55.535156 85.539062 55.472656 85.386719 C 55.429688 85.277344 55.390625 85.160156 55.339844 85.054688 C 55.273438 84.898438 55.195312 84.75 55.117188 84.601562 C 55.066406 84.503906 55.019531 84.402344 54.964844 84.308594 C 54.871094 84.148438 54.765625 84 54.664062 83.847656 C 54.613281 83.773438 54.566406 83.691406 54.511719 83.621094 C 54.351562 83.398438 54.175781 83.1875 53.988281 82.984375 L 48.832031 77.40625 C 49.019531 77.609375 49.195312 77.820312 49.355469 78.039062 C 49.410156 78.113281 49.457031 78.195312 49.507812 78.269531 C 49.613281 78.421875 49.714844 78.570312 49.808594 78.730469 C 49.863281 78.824219 49.910156 78.925781 49.960938 79.023438 C 50.039062 79.171875 50.117188 79.320312 50.1875 79.472656 C 50.234375 79.582031 50.273438 79.695312 50.320312 79.808594 C 50.378906 79.960938 50.4375 80.113281 50.492188 80.269531 C 50.527344 80.382812 50.558594 80.5 50.589844 80.617188 C 50.640625 80.792969 50.6875 80.972656 50.726562 81.160156 C 50.753906 81.285156 50.777344 81.410156 50.800781 81.539062 C 50.835938 81.722656 50.863281 81.910156 50.886719 82.101562 C 50.90625 82.269531 50.925781 82.433594 50.941406 82.601562 C 50.945312 82.683594 50.953125 82.765625 50.957031 82.847656 C 50.976562 83.128906 50.988281 83.414062 50.984375 83.710938 C 50.984375 84.003906 50.964844 84.308594 50.945312 84.613281 C 50.929688 84.878906 50.898438 85.148438 50.867188 85.421875 C 50.851562 85.558594 50.839844 85.695312 50.820312 85.835938 C 50.769531 86.207031 50.703125 86.585938 50.625 86.972656 C 50.617188 87.015625 50.609375 87.058594 50.601562 87.101562 C 50.515625 87.503906 50.421875 87.914062 50.308594 88.328125 C 50.203125 88.710938 50.09375 89.082031 49.976562 89.449219 C 49.933594 89.574219 49.886719 89.695312 49.847656 89.820312 C 49.765625 90.058594 49.6875 90.292969 49.601562 90.523438 C 49.476562 90.851562 49.347656 91.171875 49.210938 91.488281 C 49.167969 91.582031 49.125 91.675781 49.082031 91.769531 C 48.984375 91.988281 48.886719 92.203125 48.78125 92.414062 C 48.726562 92.53125 48.667969 92.640625 48.613281 92.753906 C 48.515625 92.941406 48.417969 93.125 48.316406 93.308594 C 48.253906 93.421875 48.1875 93.539062 48.121094 93.652344 C 48.035156 93.796875 47.949219 93.945312 47.859375 94.089844 C 47.710938 94.324219 47.5625 94.554688 47.40625 94.78125 C 47.335938 94.882812 47.269531 94.988281 47.199219 95.089844 C 46.972656 95.40625 46.738281 95.71875 46.492188 96.019531 C 44.777344 98.121094 42.742188 99.703125 40.382812 100.773438 C 39.199219 101.3125 37.960938 101.714844 36.675781 101.976562 C 36.675781 101.964844 36.675781 101.953125 36.675781 101.9375 C 36.675781 101.785156 36.683594 101.617188 36.699219 101.4375 C 36.703125 101.371094 36.710938 101.300781 36.714844 101.226562 C 36.730469 101.085938 36.746094 100.941406 36.765625 100.785156 C 36.777344 100.710938 36.785156 100.640625 36.796875 100.5625 C 36.824219 100.359375 36.859375 100.148438 36.898438 99.925781 C 36.90625 99.886719 36.910156 99.851562 36.917969 99.8125 C 36.964844 99.539062 37.023438 99.25 37.085938 98.949219 C 37.097656 98.910156 37.105469 98.871094 37.113281 98.828125 C 37.175781 98.535156 37.246094 98.230469 37.320312 97.910156 C 37.332031 97.875 37.339844 97.835938 37.347656 97.800781 C 37.429688 97.46875 37.515625 97.121094 37.609375 96.757812 C 37.617188 96.726562 37.625 96.695312 37.632812 96.664062 C 37.730469 96.289062 37.835938 95.902344 37.945312 95.492188 C 37.953125 95.472656 37.957031 95.453125 37.964844 95.433594 C 38.082031 95.011719 38.207031 94.570312 38.339844 94.117188 C 38.457031 93.691406 38.578125 93.289062 38.695312 92.894531 C 38.726562 92.789062 38.757812 92.6875 38.789062 92.585938 C 38.890625 92.246094 38.996094 91.914062 39.097656 91.59375 C 39.113281 91.546875 39.125 91.5 39.140625 91.457031 C 39.253906 91.101562 39.367188 90.769531 39.476562 90.445312 C 39.507812 90.363281 39.535156 90.28125 39.5625 90.199219 C 39.65625 89.933594 39.75 89.675781 39.839844 89.433594 C 39.863281 89.371094 39.882812 89.3125 39.90625 89.253906 C 39.964844 89.097656 40.023438 88.949219 40.082031 88.804688 C 40.109375 88.734375 40.136719 88.65625 40.167969 88.589844 C 40.253906 88.375 40.335938 88.171875 40.421875 87.980469 C 40.5 87.800781 40.578125 87.628906 40.65625 87.460938 C 40.683594 87.40625 40.710938 87.355469 40.734375 87.300781 C 40.789062 87.191406 40.839844 87.082031 40.894531 86.980469 C 40.925781 86.917969 40.957031 86.859375 40.988281 86.796875 C 41.035156 86.707031 41.082031 86.617188 41.128906 86.53125 C 41.164062 86.472656 41.199219 86.414062 41.230469 86.355469 C 41.277344 86.277344 41.320312 86.199219 41.367188 86.125 C 41.414062 86.046875 41.460938 85.972656 41.511719 85.898438 C 41.546875 85.84375 41.582031 85.785156 41.617188 85.734375 C 41.664062 85.660156 41.714844 85.59375 41.765625 85.523438 C 41.800781 85.476562 41.832031 85.429688 41.863281 85.386719 C 41.921875 85.3125 41.976562 85.246094 42.03125 85.179688 C 42.058594 85.144531 42.085938 85.109375 42.117188 85.074219 C 42.199219 84.980469 42.28125 84.890625 42.367188 84.804688 C 43.015625 84.164062 43.75 83.84375 44.558594 83.847656 C 44.847656 83.847656 45.097656 83.886719 45.316406 83.96875 C 45.421875 84.007812 45.523438 84.058594 45.613281 84.117188 C 45.707031 84.175781 45.789062 84.246094 45.863281 84.328125 L 40.707031 78.746094 C 40.410156 78.429688 39.976562 78.269531 39.40625 78.265625 C 38.59375 78.261719 37.863281 78.582031 37.210938 79.226562 C 37.128906 79.308594 37.042969 79.398438 36.960938 79.496094 C 36.933594 79.527344 36.90625 79.566406 36.875 79.597656 C 36.820312 79.667969 36.765625 79.734375 36.710938 79.804688 C 36.675781 79.847656 36.644531 79.898438 36.609375 79.945312 C 36.5625 80.011719 36.511719 80.082031 36.460938 80.15625 C 36.425781 80.207031 36.390625 80.265625 36.355469 80.320312 C 36.308594 80.394531 36.257812 80.46875 36.210938 80.546875 C 36.203125 80.558594 36.195312 80.566406 36.191406 80.578125 C 36.152344 80.640625 36.113281 80.710938 36.078125 80.777344 C 36.042969 80.835938 36.007812 80.890625 35.976562 80.953125 C 35.929688 81.039062 35.878906 81.128906 35.832031 81.21875 C 35.800781 81.28125 35.769531 81.335938 35.738281 81.398438 C 35.683594 81.503906 35.632812 81.613281 35.582031 81.722656 C 35.554688 81.777344 35.527344 81.828125 35.503906 81.882812 C 35.421875 82.050781 35.34375 82.222656 35.265625 82.402344 C 35.183594 82.59375 35.097656 82.796875 35.011719 83.007812 C 34.984375 83.078125 34.953125 83.152344 34.925781 83.226562 C 34.867188 83.371094 34.808594 83.519531 34.75 83.675781 C 34.742188 83.691406 34.738281 83.707031 34.730469 83.726562 C 34.714844 83.765625 34.699219 83.8125 34.683594 83.851562 C 34.59375 84.097656 34.5 84.355469 34.40625 84.621094 C 34.378906 84.703125 34.351562 84.78125 34.320312 84.867188 C 34.210938 85.191406 34.097656 85.523438 33.984375 85.875 C 33.972656 85.921875 33.957031 85.96875 33.941406 86.015625 C 33.839844 86.332031 33.738281 86.664062 33.632812 87.007812 C 33.601562 87.109375 33.570312 87.210938 33.539062 87.316406 C 33.421875 87.707031 33.304688 88.113281 33.183594 88.535156 C 33.050781 88.992188 32.925781 89.429688 32.808594 89.855469 C 32.804688 89.875 32.796875 89.894531 32.792969 89.914062 C 32.679688 90.320312 32.574219 90.710938 32.476562 91.085938 C 32.46875 91.117188 32.460938 91.148438 32.453125 91.179688 C 32.359375 91.542969 32.273438 91.890625 32.191406 92.222656 C 32.183594 92.257812 32.175781 92.292969 32.167969 92.328125 C 32.089844 92.652344 32.019531 92.957031 31.957031 93.25 C 31.949219 93.289062 31.941406 93.332031 31.933594 93.371094 C 31.925781 93.402344 31.917969 93.4375 31.910156 93.46875 C 31.855469 93.738281 31.804688 93.992188 31.761719 94.230469 C 31.753906 94.273438 31.75 94.308594 31.742188 94.347656 C 31.703125 94.570312 31.667969 94.78125 31.640625 94.980469 C 31.628906 95.058594 31.621094 95.132812 31.609375 95.207031 C 31.589844 95.359375 31.574219 95.507812 31.5625 95.648438 C 31.554688 95.71875 31.546875 95.792969 31.542969 95.859375 C 31.539062 95.910156 31.53125 95.964844 31.53125 96.011719 C 31.523438 96.132812 31.519531 96.25 31.519531 96.359375 C 31.519531 96.574219 31.527344 96.773438 31.546875 96.957031 C 31.546875 96.960938 31.546875 96.964844 31.546875 96.96875 C 31.5625 97.121094 31.585938 97.261719 31.617188 97.394531 C 31.625 97.425781 31.632812 97.460938 31.640625 97.492188 C 31.652344 97.535156 31.660156 97.578125 31.671875 97.613281 C 31.691406 97.671875 31.714844 97.71875 31.734375 97.769531 C 31.75 97.808594 31.761719 97.847656 31.777344 97.882812 C 31.832031 97.992188 31.886719 98.09375 31.957031 98.183594 C 31.980469 98.214844 32.007812 98.246094 32.035156 98.273438 L 35.625 102.160156 C 34.675781 102.296875 33.703125 102.367188 32.703125 102.363281 C 29.320312 102.347656 26.671875 101.535156 24.761719 99.917969 C 24.515625 99.707031 24.28125 99.484375 24.066406 99.25 L 29.222656 104.832031 C 29.4375 105.0625 29.667969 105.285156 29.917969 105.496094 C 31.828125 107.113281 34.476562 107.925781 37.859375 107.941406 C 40.621094 107.953125 43.179688 107.425781 45.539062 106.351562 C 47.898438 105.285156 49.933594 103.699219 51.648438 101.597656 C 51.894531 101.296875 52.128906 100.984375 52.355469 100.667969 C 52.425781 100.566406 52.492188 100.464844 52.5625 100.363281 C 52.71875 100.132812 52.867188 99.902344 53.015625 99.667969 C 53.050781 99.609375 53.089844 99.554688 53.128906 99.492188 C 53.179688 99.40625 53.226562 99.316406 53.277344 99.230469 C 53.34375 99.117188 53.410156 99.003906 53.472656 98.886719 C 53.574219 98.703125 53.671875 98.519531 53.765625 98.332031 C 53.824219 98.21875 53.882812 98.109375 53.9375 97.996094 C 54.042969 97.78125 54.140625 97.566406 54.238281 97.347656 C 54.28125 97.253906 54.324219 97.164062 54.367188 97.066406 C 54.5 96.757812 54.628906 96.441406 54.75 96.117188 C 54.75 96.113281 54.753906 96.109375 54.753906 96.105469 C 54.839844 95.875 54.921875 95.636719 55 95.398438 C 55.042969 95.273438 55.089844 95.15625 55.128906 95.027344 C 55.25 94.664062 55.359375 94.289062 55.464844 93.910156 C 55.574219 93.492188 55.671875 93.085938 55.757812 92.683594 C 55.757812 92.679688 55.757812 92.675781 55.761719 92.671875 C 55.769531 92.628906 55.773438 92.589844 55.78125 92.550781 C 55.859375 92.164062 55.925781 91.785156 55.976562 91.414062 C 55.996094 91.273438 56.007812 91.136719 56.023438 91 Z M 56.023438 91 " fill-opacity="1" fill-rule="nonzero"/><path fill="#029fff" d="M 70.453125 100.113281 C 70.480469 99.976562 70.519531 99.835938 70.570312 99.691406 L 73.171875 91.269531 C 73.238281 91.078125 73.289062 90.886719 73.332031 90.6875 C 73.335938 90.664062 73.347656 90.640625 73.351562 90.617188 C 73.359375 90.578125 73.363281 90.539062 73.371094 90.5 C 73.382812 90.4375 73.394531 90.371094 73.402344 90.308594 C 73.414062 90.226562 73.425781 90.144531 73.433594 90.0625 C 73.441406 90 73.449219 89.9375 73.453125 89.871094 C 73.453125 89.84375 73.457031 89.816406 73.460938 89.785156 C 73.464844 89.6875 73.46875 89.589844 73.46875 89.488281 C 73.46875 89.339844 73.460938 89.195312 73.449219 89.054688 C 73.441406 89.007812 73.433594 88.960938 73.425781 88.914062 C 73.421875 88.886719 73.417969 88.855469 73.414062 88.828125 C 73.390625 88.6875 73.359375 88.546875 73.320312 88.417969 C 73.308594 88.390625 73.296875 88.363281 73.289062 88.335938 C 73.28125 88.3125 73.269531 88.285156 73.261719 88.257812 C 73.199219 88.101562 73.132812 87.953125 73.046875 87.8125 C 73.035156 87.792969 73.023438 87.777344 73.011719 87.761719 C 72.921875 87.613281 72.816406 87.472656 72.699219 87.34375 L 67.542969 81.765625 C 67.664062 81.894531 67.765625 82.035156 67.859375 82.179688 C 67.867188 82.199219 67.882812 82.214844 67.890625 82.230469 C 67.976562 82.375 68.046875 82.523438 68.105469 82.679688 C 68.113281 82.707031 68.125 82.730469 68.132812 82.757812 C 68.1875 82.914062 68.230469 83.078125 68.257812 83.25 C 68.261719 83.277344 68.265625 83.308594 68.273438 83.335938 C 68.296875 83.519531 68.316406 83.710938 68.3125 83.910156 C 68.3125 84.039062 68.304688 84.167969 68.296875 84.292969 C 68.292969 84.355469 68.285156 84.421875 68.277344 84.484375 C 68.269531 84.566406 68.261719 84.648438 68.25 84.730469 C 68.238281 84.792969 68.226562 84.855469 68.214844 84.917969 C 68.203125 84.984375 68.191406 85.046875 68.175781 85.109375 C 68.132812 85.304688 68.082031 85.5 68.015625 85.6875 L 65.414062 94.113281 C 65.367188 94.25 65.328125 94.382812 65.300781 94.515625 C 65.300781 94.519531 65.300781 94.527344 65.296875 94.53125 C 65.292969 94.5625 65.292969 94.59375 65.285156 94.625 C 65.273438 94.703125 65.257812 94.785156 65.253906 94.859375 C 65.253906 94.894531 65.25 94.929688 65.25 94.964844 C 65.25 95.03125 65.253906 95.097656 65.261719 95.160156 C 65.261719 95.167969 65.261719 95.171875 65.265625 95.179688 C 65.273438 95.253906 65.285156 95.320312 65.304688 95.386719 C 65.308594 95.394531 65.308594 95.402344 65.308594 95.410156 C 65.3125 95.410156 65.3125 95.410156 65.3125 95.414062 C 65.324219 95.457031 65.34375 95.492188 65.363281 95.535156 C 65.371094 95.554688 65.378906 95.578125 65.390625 95.597656 C 65.421875 95.652344 65.460938 95.703125 65.503906 95.75 L 70.65625 101.328125 C 70.613281 101.28125 70.578125 101.230469 70.546875 101.175781 C 70.535156 101.15625 70.527344 101.132812 70.519531 101.113281 C 70.5 101.074219 70.480469 101.035156 70.464844 100.992188 C 70.464844 100.984375 70.464844 100.972656 70.460938 100.964844 C 70.441406 100.902344 70.429688 100.832031 70.417969 100.757812 C 70.410156 100.6875 70.40625 100.617188 70.40625 100.542969 C 70.40625 100.433594 70.421875 100.316406 70.441406 100.203125 C 70.445312 100.171875 70.449219 100.144531 70.453125 100.113281 Z M 70.453125 100.113281 " fill-opacity="1" fill-rule="nonzero"/><path fill="#029fff" d="M 86.988281 89.011719 C 86.972656 88.894531 86.945312 88.785156 86.917969 88.675781 C 86.902344 88.617188 86.898438 88.550781 86.882812 88.492188 C 86.871094 88.460938 86.859375 88.433594 86.847656 88.402344 C 86.835938 88.375 86.828125 88.347656 86.816406 88.320312 C 86.757812 88.167969 86.691406 88.023438 86.605469 87.886719 C 86.59375 87.867188 86.582031 87.851562 86.570312 87.832031 C 86.480469 87.6875 86.378906 87.550781 86.261719 87.425781 L 81.105469 81.84375 C 81.222656 81.972656 81.324219 82.109375 81.414062 82.253906 C 81.425781 82.269531 81.441406 82.289062 81.453125 82.308594 C 81.535156 82.445312 81.601562 82.589844 81.660156 82.742188 C 81.671875 82.769531 81.683594 82.796875 81.691406 82.824219 C 81.722656 82.910156 81.738281 83.003906 81.761719 83.09375 C 81.789062 83.207031 81.816406 83.316406 81.832031 83.433594 C 81.851562 83.59375 81.871094 83.757812 81.867188 83.929688 C 81.867188 84.027344 81.859375 84.132812 81.851562 84.242188 C 81.847656 84.296875 81.839844 84.355469 81.835938 84.410156 C 81.824219 84.492188 81.8125 84.574219 81.800781 84.65625 C 81.789062 84.714844 81.78125 84.773438 81.769531 84.835938 C 81.75 84.933594 81.726562 85.03125 81.703125 85.132812 C 81.691406 85.179688 81.679688 85.226562 81.667969 85.277344 C 81.628906 85.429688 81.582031 85.585938 81.53125 85.75 L 78.1875 96.480469 C 78.167969 96.554688 78.152344 96.617188 78.140625 96.675781 C 78.140625 96.691406 78.140625 96.699219 78.136719 96.714844 C 78.125 96.769531 78.121094 96.816406 78.113281 96.859375 C 78.113281 96.882812 78.105469 96.910156 78.105469 96.929688 C 78.105469 96.945312 78.105469 96.957031 78.101562 96.96875 C 78.101562 97.003906 78.105469 97.039062 78.109375 97.074219 C 78.113281 97.125 78.125 97.175781 78.136719 97.21875 C 78.160156 97.296875 78.195312 97.359375 78.242188 97.417969 C 78.242188 97.417969 78.246094 97.417969 78.246094 97.421875 L 79.972656 99.289062 C 79.964844 99.308594 79.953125 99.328125 79.945312 99.347656 C 79.84375 99.523438 79.726562 99.699219 79.59375 99.871094 C 79.019531 100.617188 78.21875 101.226562 77.183594 101.707031 C 76.15625 102.1875 75.007812 102.429688 73.734375 102.425781 C 72.667969 102.417969 71.753906 102.265625 70.980469 101.976562 L 68.109375 98.871094 C 67.128906 99.949219 66.050781 100.761719 64.871094 101.308594 C 63.691406 101.859375 62.492188 102.128906 61.273438 102.125 C 59.382812 102.113281 57.796875 101.644531 56.515625 100.703125 C 56.246094 100.507812 56.007812 100.292969 55.792969 100.066406 L 60.949219 105.644531 C 61.160156 105.871094 61.402344 106.085938 61.671875 106.28125 C 62.949219 107.222656 64.539062 107.695312 66.429688 107.703125 C 67.648438 107.707031 68.847656 107.441406 70.027344 106.890625 C 70.617188 106.613281 71.179688 106.273438 71.71875 105.867188 C 72.125 105.5625 72.515625 105.207031 72.890625 104.824219 L 74.265625 106.3125 C 74.5 106.566406 74.773438 106.800781 75.082031 107.011719 C 76.019531 107.664062 77.289062 107.996094 78.890625 108.003906 C 80.164062 108.007812 81.3125 107.769531 82.339844 107.285156 C 83.371094 106.808594 84.171875 106.195312 84.746094 105.453125 C 84.867188 105.296875 84.972656 105.144531 85.0625 104.988281 C 85.078125 104.96875 85.085938 104.945312 85.097656 104.925781 C 85.113281 104.898438 85.128906 104.871094 85.140625 104.847656 C 85.230469 104.683594 85.308594 104.523438 85.371094 104.363281 C 85.371094 104.355469 85.375 104.351562 85.375 104.347656 C 85.386719 104.3125 85.394531 104.28125 85.40625 104.246094 C 85.445312 104.125 85.484375 104.007812 85.511719 103.886719 C 85.515625 103.863281 85.515625 103.839844 85.519531 103.820312 C 85.527344 103.769531 85.53125 103.71875 85.539062 103.667969 C 85.546875 103.597656 85.5625 103.523438 85.566406 103.453125 C 85.570312 103.371094 85.574219 103.289062 85.570312 103.203125 C 85.570312 103.144531 85.566406 103.085938 85.5625 103.027344 C 85.558594 102.996094 85.546875 102.964844 85.542969 102.933594 C 85.535156 102.894531 85.53125 102.859375 85.519531 102.824219 C 85.515625 102.804688 85.515625 102.78125 85.507812 102.761719 C 85.488281 102.695312 85.460938 102.632812 85.433594 102.574219 C 85.402344 102.515625 85.367188 102.46875 85.328125 102.429688 L 83.757812 100.726562 L 86.6875 91.328125 C 86.738281 91.164062 86.78125 91.007812 86.824219 90.855469 C 86.835938 90.804688 86.84375 90.757812 86.855469 90.710938 C 86.875 90.636719 86.894531 90.5625 86.910156 90.488281 C 86.914062 90.464844 86.917969 90.441406 86.921875 90.414062 C 86.933594 90.351562 86.945312 90.292969 86.953125 90.234375 C 86.96875 90.152344 86.980469 90.070312 86.988281 89.992188 C 86.996094 89.933594 87.003906 89.875 87.007812 89.820312 C 87.011719 89.78125 87.015625 89.738281 87.019531 89.703125 C 87.023438 89.636719 87.023438 89.570312 87.023438 89.507812 C 87.023438 89.367188 87.019531 89.234375 87.003906 89.101562 C 87 89.070312 86.992188 89.042969 86.988281 89.011719 Z M 86.988281 89.011719 " fill-opacity="1" fill-rule="nonzero"/><path fill="#029fff" d="M 109.699219 90.15625 C 109.804688 90.105469 109.902344 90.046875 109.996094 89.980469 C 110.015625 89.964844 110.035156 89.949219 110.054688 89.933594 C 110.125 89.878906 110.195312 89.820312 110.257812 89.753906 C 110.285156 89.726562 110.3125 89.699219 110.335938 89.671875 C 110.390625 89.609375 110.441406 89.542969 110.492188 89.472656 C 110.511719 89.441406 110.535156 89.414062 110.558594 89.378906 C 110.566406 89.363281 110.578125 89.347656 110.589844 89.332031 C 110.609375 89.300781 110.621094 89.265625 110.636719 89.234375 C 110.6875 89.140625 110.734375 89.042969 110.777344 88.941406 C 110.789062 88.914062 110.804688 88.890625 110.8125 88.863281 C 110.839844 88.792969 110.867188 88.714844 110.890625 88.636719 C 110.890625 88.632812 110.890625 88.632812 110.890625 88.628906 C 110.914062 88.527344 110.929688 88.441406 110.941406 88.359375 C 110.941406 88.347656 110.945312 88.335938 110.945312 88.320312 C 110.957031 88.25 110.964844 88.1875 110.96875 88.136719 C 110.96875 88.132812 110.96875 88.125 110.96875 88.121094 C 110.96875 88.101562 110.972656 88.085938 110.972656 88.070312 C 110.972656 88.015625 110.96875 87.964844 110.964844 87.917969 C 110.960938 87.90625 110.957031 87.898438 110.957031 87.886719 C 110.953125 87.84375 110.941406 87.800781 110.929688 87.757812 C 110.925781 87.738281 110.925781 87.714844 110.917969 87.695312 C 110.917969 87.6875 110.910156 87.679688 110.910156 87.675781 C 110.894531 87.628906 110.875 87.585938 110.851562 87.542969 C 110.84375 87.523438 110.835938 87.5 110.824219 87.480469 C 110.785156 87.421875 110.746094 87.363281 110.695312 87.3125 L 107.917969 84.304688 C 107.921875 84.285156 107.921875 84.261719 107.921875 84.242188 C 107.929688 84.179688 107.941406 84.125 107.945312 84.0625 C 107.949219 83.988281 107.953125 83.914062 107.953125 83.839844 C 107.953125 83.738281 107.949219 83.644531 107.9375 83.550781 C 107.9375 83.535156 107.933594 83.523438 107.929688 83.507812 C 107.921875 83.417969 107.902344 83.335938 107.878906 83.25 C 107.871094 83.21875 107.867188 83.183594 107.859375 83.152344 C 107.859375 83.148438 107.855469 83.140625 107.851562 83.136719 C 107.828125 83.0625 107.792969 82.996094 107.761719 82.925781 C 107.746094 82.894531 107.734375 82.855469 107.714844 82.824219 C 107.660156 82.730469 107.59375 82.640625 107.519531 82.558594 L 102.363281 76.976562 C 102.4375 77.058594 102.503906 77.148438 102.558594 77.246094 C 102.578125 77.277344 102.589844 77.3125 102.605469 77.347656 C 102.640625 77.414062 102.671875 77.484375 102.695312 77.554688 C 102.707031 77.59375 102.714844 77.632812 102.722656 77.671875 C 102.746094 77.753906 102.765625 77.839844 102.777344 77.929688 C 102.789062 78.035156 102.796875 78.144531 102.796875 78.261719 C 102.796875 78.398438 102.78125 78.53125 102.769531 78.664062 C 102.757812 78.761719 102.746094 78.859375 102.730469 78.953125 C 102.703125 79.105469 102.671875 79.253906 102.628906 79.398438 L 102.046875 81.257812 L 104.90625 84.347656 C 104.902344 84.351562 104.902344 84.351562 104.898438 84.355469 C 104.878906 84.371094 104.863281 84.386719 104.839844 84.402344 C 104.75 84.46875 104.648438 84.527344 104.546875 84.578125 C 104.519531 84.589844 104.488281 84.601562 104.460938 84.613281 C 104.382812 84.648438 104.296875 84.679688 104.207031 84.707031 C 104.167969 84.71875 104.128906 84.730469 104.089844 84.738281 C 104.003906 84.761719 103.914062 84.777344 103.824219 84.792969 C 103.785156 84.796875 103.746094 84.804688 103.703125 84.808594 C 103.570312 84.824219 103.4375 84.835938 103.292969 84.832031 L 100.933594 84.824219 L 97.835938 94.824219 C 97.789062 94.972656 97.746094 95.125 97.714844 95.28125 C 97.707031 95.308594 97.707031 95.335938 97.703125 95.363281 C 97.6875 95.453125 97.679688 95.546875 97.667969 95.636719 C 97.660156 95.71875 97.640625 95.796875 97.636719 95.875 C 97.632812 95.945312 97.628906 96.011719 97.628906 96.082031 C 97.628906 96.167969 97.632812 96.25 97.640625 96.328125 C 97.640625 96.332031 97.644531 96.335938 97.644531 96.34375 C 97.65625 96.441406 97.671875 96.535156 97.699219 96.617188 C 97.699219 96.617188 97.699219 96.621094 97.699219 96.625 C 97.714844 96.667969 97.734375 96.710938 97.753906 96.75 C 97.765625 96.773438 97.773438 96.796875 97.785156 96.820312 C 97.816406 96.882812 97.855469 96.9375 97.902344 96.984375 L 100.675781 99.988281 C 99.886719 100.640625 98.882812 101.214844 97.640625 101.695312 C 96.230469 102.246094 94.675781 102.515625 92.96875 102.507812 C 91.128906 102.5 89.660156 102.074219 88.550781 101.234375 C 88.339844 101.070312 88.144531 100.894531 87.972656 100.710938 L 93.128906 106.289062 C 93.300781 106.476562 93.492188 106.648438 93.707031 106.8125 C 94.8125 107.65625 96.285156 108.078125 98.125 108.089844 C 99.828125 108.097656 101.386719 107.824219 102.796875 107.273438 C 104.203125 106.730469 105.324219 106.070312 106.152344 105.304688 C 106.257812 105.207031 106.355469 105.113281 106.449219 105.019531 C 106.476562 104.988281 106.5 104.960938 106.527344 104.929688 C 106.585938 104.867188 106.648438 104.804688 106.699219 104.746094 C 106.730469 104.707031 106.757812 104.671875 106.785156 104.636719 C 106.828125 104.585938 106.875 104.53125 106.914062 104.480469 C 106.941406 104.441406 106.960938 104.40625 106.988281 104.371094 C 107.019531 104.324219 107.054688 104.273438 107.085938 104.226562 C 107.085938 104.222656 107.089844 104.21875 107.09375 104.214844 C 107.097656 104.203125 107.101562 104.195312 107.109375 104.183594 C 107.164062 104.085938 107.210938 103.992188 107.25 103.898438 C 107.253906 103.882812 107.265625 103.867188 107.269531 103.855469 C 107.277344 103.839844 107.277344 103.828125 107.28125 103.8125 C 107.296875 103.773438 107.304688 103.738281 107.316406 103.699219 C 107.324219 103.675781 107.332031 103.652344 107.335938 103.628906 C 107.339844 103.613281 107.339844 103.601562 107.34375 103.585938 C 107.347656 103.558594 107.351562 103.535156 107.351562 103.507812 C 107.355469 103.488281 107.359375 103.46875 107.363281 103.449219 C 107.363281 103.414062 107.363281 103.378906 107.363281 103.34375 C 107.363281 103.304688 107.359375 103.269531 107.355469 103.234375 C 107.351562 103.1875 107.339844 103.140625 107.328125 103.09375 C 107.328125 103.089844 107.328125 103.085938 107.324219 103.082031 C 107.324219 103.082031 107.324219 103.078125 107.324219 103.078125 C 107.300781 103.003906 107.265625 102.933594 107.222656 102.878906 C 107.214844 102.867188 107.207031 102.855469 107.195312 102.84375 L 103.480469 98.824219 L 106.089844 90.402344 L 108.445312 90.414062 C 108.589844 90.414062 108.726562 90.402344 108.859375 90.390625 C 108.898438 90.386719 108.9375 90.378906 108.976562 90.371094 C 109.070312 90.359375 109.160156 90.339844 109.246094 90.320312 C 109.285156 90.308594 109.324219 90.296875 109.363281 90.285156 C 109.453125 90.257812 109.535156 90.226562 109.617188 90.191406 C 109.644531 90.179688 109.675781 90.167969 109.699219 90.15625 Z M 109.699219 90.15625 " fill-opacity="1" fill-rule="nonzero"/><path fill="#fff8ab" d="M 32.96875 44.265625 C 34.484375 44.273438 35.886719 44.460938 37.171875 44.832031 C 38.449219 45.203125 39.753906 45.78125 41.078125 46.570312 L 42.015625 45.804688 C 42.664062 45.292969 43.199219 44.945312 43.621094 44.761719 C 44.039062 44.570312 44.523438 44.476562 45.0625 44.480469 C 45.714844 44.484375 46.222656 44.625 46.605469 44.914062 C 46.980469 45.199219 47.167969 45.613281 47.164062 46.152344 C 47.164062 46.371094 47.121094 46.597656 47.042969 46.84375 L 45.308594 52.429688 C 45.113281 53.078125 44.871094 53.539062 44.589844 53.804688 C 44.304688 54.078125 43.875 54.207031 43.304688 54.207031 C 42.714844 54.203125 42.195312 54.019531 41.75 53.652344 C 41.304688 53.285156 40.613281 52.53125 39.667969 51.394531 C 38.726562 50.304688 37.875 49.539062 37.105469 49.089844 C 36.339844 48.640625 35.546875 48.414062 34.734375 48.410156 C 34.136719 48.40625 33.636719 48.601562 33.226562 48.992188 C 32.820312 49.382812 32.617188 49.859375 32.613281 50.429688 C 32.609375 51.074219 32.929688 51.683594 33.582031 52.234375 C 34.222656 52.792969 35.238281 53.496094 36.609375 54.339844 C 38.011719 55.183594 39.171875 55.945312 40.089844 56.621094 C 41.003906 57.304688 41.785156 58.148438 42.425781 59.148438 C 43.074219 60.152344 43.390625 61.300781 43.382812 62.597656 C 43.378906 63.4375 43.238281 64.273438 42.964844 65.109375 C 42.308594 67.273438 41.039062 68.910156 39.164062 70.023438 C 37.289062 71.132812 35.113281 71.683594 32.625 71.671875 C 30.757812 71.664062 29.1875 71.445312 27.921875 71.007812 C 26.652344 70.566406 25.355469 69.832031 24.035156 68.796875 L 22.566406 70.007812 C 21.886719 70.574219 21.328125 70.960938 20.894531 71.15625 C 20.460938 71.359375 19.976562 71.457031 19.433594 71.457031 C 18.8125 71.453125 18.320312 71.300781 17.957031 71.003906 C 17.59375 70.707031 17.414062 70.300781 17.414062 69.785156 C 17.417969 69.515625 17.472656 69.230469 17.578125 68.933594 L 19.601562 62.898438 C 19.820312 62.199219 20.121094 61.699219 20.5 61.40625 C 20.878906 61.109375 21.367188 60.960938 21.964844 60.964844 C 22.585938 60.96875 23.148438 61.183594 23.644531 61.621094 C 24.144531 62.054688 24.796875 62.839844 25.601562 63.984375 C 26.460938 65.230469 27.261719 66.097656 28.003906 66.589844 C 28.742188 67.074219 29.628906 67.324219 30.65625 67.328125 C 31.390625 67.332031 31.949219 67.222656 32.34375 66.992188 C 32.738281 66.765625 33.019531 66.390625 33.179688 65.878906 C 33.234375 65.746094 33.261719 65.542969 33.265625 65.273438 C 33.269531 64.621094 32.960938 64.027344 32.339844 63.484375 C 31.722656 62.9375 30.765625 62.289062 29.46875 61.527344 C 28.09375 60.683594 26.976562 59.925781 26.113281 59.257812 C 25.25 58.59375 24.503906 57.761719 23.875 56.757812 C 23.246094 55.75 22.933594 54.574219 22.941406 53.222656 C 22.945312 52.28125 23.097656 51.347656 23.402344 50.429688 C 23.976562 48.5625 25.152344 47.070312 26.914062 45.945312 C 28.679688 44.8125 30.695312 44.257812 32.96875 44.265625 Z M 32.96875 44.265625 " fill-opacity="1" fill-rule="nonzero"/><path fill="#fff8ab" d="M 73.613281 52.476562 C 75.351562 53.96875 76.210938 55.917969 76.199219 58.328125 C 76.195312 59.136719 76.078125 60.042969 75.859375 61.039062 C 75.332031 63.253906 74.359375 65.191406 72.949219 66.847656 C 71.53125 68.503906 69.800781 69.78125 67.753906 70.675781 C 65.703125 71.574219 63.492188 72.015625 61.109375 72.003906 C 57.351562 71.988281 54.574219 71.222656 52.78125 69.71875 C 50.988281 68.207031 50.101562 66.214844 50.117188 63.726562 C 50.121094 62.886719 50.234375 61.957031 50.453125 60.925781 C 50.980469 58.820312 51.96875 56.953125 53.429688 55.324219 C 54.882812 53.695312 56.660156 52.433594 58.761719 51.535156 C 60.863281 50.640625 63.105469 50.199219 65.488281 50.207031 C 69.167969 50.226562 71.875 50.980469 73.613281 52.476562 Z M 65.066406 61.03125 C 65.917969 58.414062 66.347656 56.511719 66.355469 55.324219 C 66.359375 54.753906 66.269531 54.359375 66.097656 54.144531 C 65.917969 53.925781 65.667969 53.816406 65.347656 53.816406 C 64.777344 53.8125 64.171875 54.320312 63.53125 55.328125 C 62.890625 56.339844 62.132812 58.25 61.25 61.058594 C 60.371094 63.863281 59.925781 65.835938 59.921875 66.972656 C 59.917969 67.566406 60.007812 67.964844 60.195312 68.171875 C 60.386719 68.371094 60.640625 68.472656 60.964844 68.472656 C 60.996094 68.476562 61.023438 68.480469 61.050781 68.480469 C 61.59375 68.480469 62.15625 68 62.742188 67.023438 C 63.351562 66 64.128906 64.003906 65.066406 61.03125 " fill-opacity="1" fill-rule="nonzero"/><path fill="#fff8ab" d="M 92.640625 41.8125 C 94.210938 41.820312 95.363281 42.121094 96.109375 42.71875 C 96.847656 43.320312 97.210938 44.132812 97.207031 45.15625 C 97.203125 45.753906 97.109375 46.332031 96.914062 46.898438 L 90.433594 67.550781 C 90.351562 67.875 90.3125 68.15625 90.3125 68.402344 C 90.308594 68.753906 90.371094 69.03125 90.507812 69.234375 C 90.644531 69.4375 90.828125 69.636719 91.074219 69.824219 C 91.257812 70.015625 91.394531 70.171875 91.476562 70.292969 C 91.558594 70.417969 91.566406 70.574219 91.515625 70.757812 C 91.375 71.113281 91.105469 71.367188 90.699219 71.53125 C 90.292969 71.6875 89.667969 71.765625 88.828125 71.761719 L 79.578125 71.722656 C 78.875 71.71875 78.359375 71.601562 78.039062 71.367188 C 77.710938 71.140625 77.609375 70.835938 77.714844 70.457031 C 77.828125 70.132812 78.113281 69.847656 78.570312 69.609375 C 78.980469 69.390625 79.320312 69.136719 79.59375 68.84375 C 79.863281 68.546875 80.097656 68.074219 80.289062 67.425781 L 86.566406 47.21875 C 86.648438 46.976562 86.6875 46.773438 86.6875 46.613281 C 86.691406 46.3125 86.617188 46.070312 86.46875 45.878906 C 86.324219 45.691406 86.128906 45.5 85.882812 45.3125 C 85.617188 45.09375 85.421875 44.90625 85.300781 44.738281 C 85.183594 44.574219 85.160156 44.359375 85.242188 44.09375 C 85.410156 43.46875 86.261719 42.929688 87.808594 42.484375 C 89.351562 42.03125 90.960938 41.804688 92.640625 41.8125 Z M 92.640625 41.8125 " fill-opacity="1" fill-rule="nonzero"/><path fill="#fff8ab" d="M 127.066406 47.035156 L 121.164062 66.066406 C 121.105469 66.28125 121.078125 66.429688 121.078125 66.511719 C 121.078125 66.699219 121.132812 66.851562 121.242188 66.960938 C 121.347656 67.066406 121.484375 67.121094 121.644531 67.121094 C 121.96875 67.121094 122.246094 66.984375 122.480469 66.703125 C 122.710938 66.414062 122.867188 66.273438 122.949219 66.273438 C 123.085938 66.277344 123.191406 66.371094 123.269531 66.5625 C 123.351562 66.75 123.390625 66.96875 123.390625 67.210938 C 123.414062 67.941406 123.132812 68.683594 122.542969 69.4375 C 121.960938 70.191406 121.179688 70.808594 120.207031 71.292969 C 119.226562 71.773438 118.167969 72.015625 117.035156 72.011719 C 115.679688 72.003906 114.503906 71.738281 113.503906 71.21875 C 112.511719 70.707031 111.820312 70.023438 111.445312 69.183594 C 110.710938 70.128906 109.871094 70.828125 108.917969 71.28125 C 107.96875 71.738281 106.96875 71.964844 105.914062 71.960938 C 104.667969 71.957031 103.515625 71.636719 102.449219 71.011719 C 101.386719 70.382812 100.539062 69.496094 99.90625 68.347656 C 99.277344 67.191406 98.964844 65.886719 98.972656 64.425781 C 98.988281 61.964844 99.464844 59.648438 100.410156 57.476562 C 101.355469 55.308594 102.667969 53.554688 104.351562 52.226562 C 106.039062 50.894531 107.949219 50.234375 110.089844 50.242188 C 111.25 50.246094 112.242188 50.386719 113.066406 50.660156 C 113.890625 50.9375 114.640625 51.347656 115.3125 51.886719 L 116.71875 47.351562 C 116.800781 47.109375 116.84375 46.90625 116.84375 46.746094 C 116.847656 46.445312 116.769531 46.203125 116.625 46.011719 C 116.476562 45.824219 116.28125 45.632812 116.039062 45.445312 C 115.765625 45.226562 115.574219 45.039062 115.453125 44.875 C 115.332031 44.707031 115.3125 44.496094 115.394531 44.226562 C 115.5625 43.601562 116.417969 43.066406 117.960938 42.617188 C 119.507812 42.164062 121.117188 41.9375 122.796875 41.945312 C 124.363281 41.953125 125.519531 42.253906 126.257812 42.851562 C 127 43.453125 127.367188 44.265625 127.363281 45.289062 C 127.359375 45.886719 127.261719 46.464844 127.066406 47.035156 Z M 111.226562 64.882812 L 114.445312 54.640625 C 114.015625 54.261719 113.542969 54.070312 113.03125 54.066406 C 112.246094 54.0625 111.46875 54.644531 110.707031 55.800781 C 109.945312 56.960938 109.324219 58.363281 108.859375 60.011719 C 108.390625 61.65625 108.164062 63.144531 108.1875 64.464844 C 108.175781 65.957031 108.660156 66.699219 109.636719 66.703125 C 109.988281 66.707031 110.285156 66.566406 110.53125 66.285156 C 110.777344 66 111.007812 65.535156 111.226562 64.882812 " fill-opacity="1" fill-rule="nonzero"/><path fill="#fff8ab" d="M 48.140625 76.742188 C 50.050781 78.359375 51 80.679688 50.984375 83.710938 C 50.976562 85.144531 50.75 86.683594 50.308594 88.328125 C 49.480469 91.355469 48.210938 93.917969 46.492188 96.019531 C 44.777344 98.121094 42.742188 99.703125 40.382812 100.773438 C 38.027344 101.847656 35.464844 102.375 32.703125 102.359375 C 29.320312 102.347656 26.671875 101.53125 24.761719 99.917969 C 22.847656 98.300781 21.902344 95.976562 21.917969 92.949219 C 21.925781 91.570312 22.164062 89.992188 22.632812 88.207031 C 23.433594 85.210938 24.6875 82.667969 26.386719 80.582031 C 28.089844 78.496094 30.113281 76.917969 32.460938 75.863281 C 34.804688 74.808594 37.371094 74.28125 40.160156 74.292969 C 43.570312 74.308594 46.226562 75.125 48.140625 76.742188 Z M 39.597656 88.566406 C 40.667969 84.839844 41.210938 82.21875 41.21875 80.707031 C 41.222656 79.839844 41.078125 79.222656 40.78125 78.835938 C 40.488281 78.457031 40.027344 78.269531 39.402344 78.265625 C 38.59375 78.261719 37.863281 78.582031 37.210938 79.226562 C 36.554688 79.875 35.90625 80.933594 35.265625 82.402344 C 34.621094 83.875 33.925781 85.921875 33.183594 88.535156 C 32.082031 92.316406 31.527344 94.921875 31.519531 96.359375 C 31.515625 97.195312 31.660156 97.800781 31.957031 98.179688 C 32.25 98.566406 32.722656 98.753906 33.375 98.757812 C 34.1875 98.761719 34.917969 98.429688 35.566406 97.773438 C 36.222656 97.113281 36.863281 96.054688 37.496094 94.597656 C 38.121094 93.140625 38.824219 91.128906 39.597656 88.566406 " fill-opacity="1" fill-rule="nonzero"/><path fill="#fff8ab" d="M 77.296875 80.625 C 78.867188 80.632812 80.019531 80.933594 80.765625 81.527344 C 81.503906 82.128906 81.875 82.925781 81.867188 83.929688 C 81.867188 84.441406 81.753906 85.046875 81.53125 85.75 L 78.1875 96.480469 C 78.132812 96.695312 78.105469 96.859375 78.101562 96.96875 C 78.101562 97.15625 78.152344 97.304688 78.242188 97.417969 C 78.335938 97.519531 78.464844 97.578125 78.628906 97.578125 C 78.953125 97.578125 79.230469 97.4375 79.464844 97.15625 C 79.695312 96.871094 79.851562 96.730469 79.933594 96.730469 C 80.070312 96.730469 80.183594 96.824219 80.277344 96.996094 C 80.367188 97.175781 80.417969 97.382812 80.414062 97.625 C 80.4375 98.382812 80.160156 99.132812 79.59375 99.871094 C 79.019531 100.617188 78.21875 101.226562 77.183594 101.707031 C 76.15625 102.1875 75.007812 102.429688 73.734375 102.425781 C 72.136719 102.417969 70.867188 102.082031 69.925781 101.433594 C 68.980469 100.78125 68.375 99.925781 68.109375 98.871094 C 67.128906 99.949219 66.050781 100.757812 64.871094 101.308594 C 63.691406 101.859375 62.492188 102.128906 61.273438 102.125 C 59.382812 102.113281 57.796875 101.644531 56.515625 100.703125 C 55.234375 99.765625 54.597656 98.460938 54.609375 96.785156 C 54.613281 96.027344 54.753906 95.246094 55.027344 94.433594 L 57.667969 85.972656 C 57.75 85.726562 57.792969 85.527344 57.792969 85.363281 C 57.796875 85.066406 57.730469 84.828125 57.59375 84.648438 C 57.457031 84.476562 57.257812 84.292969 56.992188 84.101562 C 56.71875 83.886719 56.53125 83.695312 56.421875 83.527344 C 56.316406 83.371094 56.300781 83.152344 56.386719 82.882812 C 56.554688 82.257812 57.410156 81.714844 58.953125 81.25 C 60.496094 80.789062 62.105469 80.558594 63.78125 80.566406 C 65.355469 80.570312 66.5 80.871094 67.226562 81.46875 C 67.957031 82.066406 68.320312 82.878906 68.3125 83.910156 C 68.308594 84.527344 68.210938 85.125 68.015625 85.6875 L 65.414062 94.113281 C 65.308594 94.414062 65.253906 94.695312 65.25 94.964844 C 65.25 95.34375 65.351562 95.628906 65.570312 95.816406 C 65.789062 96.007812 66.070312 96.105469 66.421875 96.105469 C 66.9375 96.109375 67.355469 95.960938 67.679688 95.664062 C 68.007812 95.367188 68.335938 94.871094 68.664062 94.167969 L 71.183594 86.03125 C 71.265625 85.785156 71.308594 85.585938 71.308594 85.421875 C 71.3125 85.125 71.242188 84.886719 71.109375 84.710938 C 70.972656 84.535156 70.785156 84.351562 70.542969 84.160156 C 70.273438 83.945312 70.082031 83.753906 69.980469 83.589844 C 69.871094 83.429688 69.859375 83.210938 69.941406 82.941406 C 70.082031 82.320312 70.921875 81.777344 72.464844 81.308594 C 74.007812 80.847656 75.621094 80.617188 77.296875 80.625 Z M 77.296875 80.625 " fill-opacity="1" fill-rule="nonzero"/><path fill="#fff8ab" d="M 100.25 76.304688 C 101.957031 76.3125 102.804688 76.960938 102.796875 78.261719 C 102.796875 78.667969 102.738281 79.046875 102.628906 79.398438 L 102.046875 81.257812 L 104.199219 81.265625 C 104.714844 81.269531 105.113281 81.378906 105.394531 81.601562 C 105.679688 81.816406 105.816406 82.113281 105.816406 82.492188 C 105.816406 82.601562 105.792969 82.789062 105.734375 83.058594 C 105.378906 84.246094 104.558594 84.839844 103.292969 84.832031 L 100.933594 84.824219 L 97.835938 94.824219 C 97.703125 95.230469 97.632812 95.648438 97.628906 96.082031 C 97.628906 96.566406 97.757812 96.90625 98.03125 97.097656 C 98.296875 97.285156 98.675781 97.382812 99.164062 97.386719 C 99.597656 97.386719 100.140625 97.335938 100.789062 97.230469 C 101.117188 97.152344 101.398438 97.113281 101.640625 97.113281 C 101.832031 97.113281 101.972656 97.175781 102.066406 97.296875 C 102.160156 97.417969 102.207031 97.578125 102.207031 97.761719 C 102.230469 98.304688 101.828125 98.960938 100.996094 99.726562 C 100.167969 100.492188 99.046875 101.152344 97.640625 101.695312 C 96.230469 102.246094 94.675781 102.515625 92.96875 102.507812 C 91.128906 102.5 89.660156 102.074219 88.550781 101.234375 C 87.449219 100.390625 86.898438 99.234375 86.90625 97.777344 C 86.910156 97.105469 87.023438 96.453125 87.242188 95.828125 L 89.878906 87.816406 C 90.019531 87.359375 90.089844 86.992188 90.089844 86.71875 C 90.09375 86.183594 89.96875 85.722656 89.710938 85.339844 C 89.457031 84.960938 89.097656 84.566406 88.640625 84.160156 C 88.238281 83.777344 87.957031 83.460938 87.792969 83.203125 C 87.636719 82.949219 87.597656 82.640625 87.679688 82.292969 C 87.785156 81.941406 88.019531 81.667969 88.371094 81.484375 C 88.722656 81.292969 89.28125 81.203125 90.039062 81.203125 L 92.3125 81.214844 L 94.882812 78.671875 C 95.777344 77.78125 96.601562 77.167969 97.34375 76.820312 C 98.089844 76.472656 99.0625 76.296875 100.25 76.304688 Z M 100.25 76.304688 " fill-opacity="1" fill-rule="nonzero"/><path fill="#fff8ab" d="M 122.929688 73.121094 C 123.753906 73.769531 124.164062 74.679688 124.15625 75.839844 C 124.148438 77.035156 123.722656 78.378906 122.875 79.890625 L 116.445312 91.21875 C 116.117188 91.835938 115.78125 92.277344 115.445312 92.53125 C 115.105469 92.789062 114.691406 92.914062 114.203125 92.910156 C 113.148438 92.90625 112.652344 92.265625 112.710938 90.996094 L 113.308594 78.148438 C 113.519531 74.117188 115.570312 72.113281 119.46875 72.128906 C 120.957031 72.136719 122.109375 72.464844 122.929688 73.121094 Z M 122.929688 73.121094 " fill-opacity="1" fill-rule="nonzero"/><path fill="#fff8ab" d="M 113.101562 94.039062 C 114.183594 94.046875 115.097656 94.414062 115.835938 95.144531 C 116.574219 95.882812 116.945312 96.777344 116.9375 97.828125 C 116.933594 98.558594 116.734375 99.277344 116.339844 99.976562 C 115.941406 100.675781 115.398438 101.246094 114.707031 101.691406 C 114.011719 102.132812 113.234375 102.351562 112.371094 102.347656 C 111.3125 102.34375 110.421875 101.976562 109.695312 101.242188 C 108.96875 100.511719 108.597656 99.617188 108.574219 98.5625 C 108.578125 97.832031 108.769531 97.117188 109.152344 96.414062 C 109.535156 95.714844 110.074219 95.144531 110.765625 94.699219 C 111.457031 94.257812 112.234375 94.035156 113.101562 94.039062 Z M 113.101562 94.039062 " fill-opacity="1" fill-rule="nonzero"/></svg>